<?xml version="1.0" encoding="UTF-8" standalone="no"?>
<!DOCTYPE svg  PUBLIC '-//W3C//DTD SVG 1.1//EN'  'http://www.w3.org/Graphics/SVG/1.1/DTD/svg11.dtd'>
<svg xmlns="http://www.w3.org/2000/svg">
<defs>
<font id="BlenderPro-Thin" horiz-adv-x="457">
<font-face underline-position="-113" font-weight="250" descent="-200" panose-1="2 0 4 6 3 0 0 2 0 4" units-per-em="1000" unicode-range="U+0020-20AC" bbox="-70 -172 740 843" x-height="430" underline-thickness="20" font-family="BlenderPro" ascent="800" cap-height="594"/>
<missing-glyph horiz-adv-x="1000"/>
<glyph glyph-name=".notdef" horiz-adv-x="1000"/>
<glyph glyph-name=".null" horiz-adv-x="0"/>
<glyph glyph-name="nonmarkingreturn" horiz-adv-x="333"/>
<glyph glyph-name="space" horiz-adv-x="225" unicode=" "/>
<glyph glyph-name="exclam" horiz-adv-x="205" unicode="!" d="M104 0h-59v63h59v-63zM91 184h-34v410h34v-410z"/>
<glyph glyph-name="quotedbl" horiz-adv-x="366" unicode='&quot;' d="M114 513l-5 -51h-34l6 64v119h33v-132zM256 513l-5 -51h-34l6 64v119h33v-132z"/>
<glyph glyph-name="numbersign" horiz-adv-x="519" unicode="#" d="M288 365h-107l-24 -140h107zM419 399l-5 -34h-89l-24 -140h89l-5 -34h-90l-19 -112h-35l19 112h-108l-19 -112h-36l19 112h-89l5 34h89l24 140h-89l5 34h89l19 108h36l-19 -108h109l19 108h34l-18 -108h89z"/>
<glyph glyph-name="dollar" horiz-adv-x="534" unicode="$" d="M79 410q0 -19 10 -35t27 -21l111 -32v241h-60q-10 0 -18 -4q-14 -8 -35.5 -29.5t-31.5 -39.5q-3 -8 -3 -19v-61zM372 244l-112 31v-246h61q10 0 17 4q15 8 36 28.5t31 38.5q4 8 4 21v64q0 20 -9.5 37t-27.5 22zM445 120q0 -25 -11 -44q-7 -12 -30 -35.5t-35 -31.5 q-24 -15 -44 -15h-65v-87h-33v87h-67q-21 0 -45 15q-39 25 -73 88l36 10q11 -21 31.5 -43.5t35.5 -30.5q8 -4 18 -4h64v255l-129 37q-24 7 -39.5 31.5t-15.5 54.5v64q0 27 10 44q8 13 30.5 37t34.5 31q24 15 44 15h65v79h33v-79h52q20 0 44 -15q39 -25 75 -88l-36 -11 q-9 20 -30 42.5t-37 32.5q-8 4 -19 4h-49v-250l129 -37q25 -7 40.5 -30.5t15.5 -53.5v-72z"/>
<glyph glyph-name="percent" horiz-adv-x="661" unicode="%" d="M67 394q0 -11 2 -15q4 -9 15 -21.5t18 -16.5t16 -4h68q9 0 16 4t18 16.5t15 21.5q2 4 2 15v116q0 11 -2 15q-4 9 -15 21.5t-18 16.5t-16 4h-68q-9 0 -16 -4t-18 -16.5t-15 -21.5q-2 -4 -2 -15v-116zM44 354q-9 13 -9 36v124q0 23 9 36q18 24 32 35q17 14 40 14h72 q23 0 40 -14q14 -11 32 -35q9 -13 9 -36v-124q0 -23 -9 -36q-18 -24 -32 -35q-17 -14 -40 -14h-72q-23 0 -40 14q-14 11 -32 35zM394 85q0 -11 2 -15q4 -9 15 -21.5t18 -16.5t16 -4h68q9 0 16 4t18 16.5t15 21.5q2 4 2 15v116q0 11 -2 15q-4 9 -15 21.5t-18 16.5t-16 4h-68 q-9 0 -16 -4t-18 -16.5t-15 -21.5q-2 -4 -2 -15v-116zM371 45q-9 13 -9 36v124q0 23 9 36q18 24 32 35q17 14 40 14h72q23 0 40 -14q14 -11 32 -35q9 -13 9 -36v-124q0 -23 -9 -36q-18 -24 -32 -35q-17 -14 -40 -14h-72q-23 0 -40 14q-14 11 -32 35zM489 600l-304 -600h-37 l305 600h36z"/>
<glyph glyph-name="ampersand" horiz-adv-x="530" unicode="&amp;" d="M473 226h-70v-116q0 -26 -13 -46q-5 -8 -21.5 -27t-25.5 -25q-22 -17 -54 -17h-149q-30 0 -52 17q-9 6 -25.5 25t-21.5 27q-13 20 -13 46v94q0 26 13 45q22 33 49 51q-9 5 -24 22.5t-21 27.5q-13 19 -13 47v84q0 27 13 48t47 51q23 18 52 18h93q21 0 45 -15 q39 -24 75 -89l-36 -10q-11 23 -30 44.5t-37 31.5q-6 4 -20 4h-89q-13 0 -22 -5q-11 -7 -28 -24.5t-23 -29.5q-5 -12 -5 -22v-84q0 -10 5 -22q19 -39 47 -55q11 -6 22 -6h115v-33h-116q-12 0 -22 -6q-33 -20 -50 -53q-5 -10 -5 -21v-91q0 -11 5 -21q19 -37 52 -57 q9 -5 22 -5h147q14 0 23 5q13 7 28 24.5t23 32.5q5 10 5 21v149h105v-35z"/>
<glyph glyph-name="quotesingle" horiz-adv-x="222" unicode="&apos;" d="M114 513l-5 -51h-34l6 64v119h33v-132z"/>
<glyph glyph-name="parenleft" horiz-adv-x="327" unicode="(" d="M193 -15l-25 -26l-79 80q-27 27 -38 45q-11 16 -11 44v343q0 27 11 43q14 22 38 47l79 80l24 -26l-77 -78q-28 -28 -38 -47q-2 -3 -2 -21v-339q0 -16 3 -21q10 -19 38 -47z"/>
<glyph glyph-name="parenright" horiz-adv-x="328" unicode=")" d="M220 128q0 -26 -12 -44q-10 -17 -38 -45l-80 -80l-23 26l77 77q28 28 38 47q3 5 3 21v339q0 16 -3 21q-13 24 -36 47l-77 78l21 26l80 -80q24 -25 38 -47q12 -18 12 -43v-343z"/>
<glyph glyph-name="asterisk" d="M357 512l-131 -40l83 -110l-30 -21l-80 114l-80 -114l-30 21l82 110l-130 40l11 35l130 -45l-1 139h36l-2 -139l131 45z" unicode="*"/>
<glyph glyph-name="plus" horiz-adv-x="518" unicode="+" d="M390 232h-150v-159h-34v159h-150v34h150v159h34v-159h150v-34z"/>
<glyph glyph-name="comma" horiz-adv-x="205" unicode="," d="M105 64l-57 -151h-40l60 165z"/>
<glyph glyph-name="hyphen" horiz-adv-x="346" unicode="-" d="M251 232h-214v33h214v-33z"/>
<glyph glyph-name="period" horiz-adv-x="215" unicode="." d="M107 0h-61v65h61v-65z"/>
<glyph glyph-name="slash" horiz-adv-x="413" unicode="/" d="M358 594l-301 -594h-38l302 594h37z"/>
<glyph glyph-name="zero" horiz-adv-x="494" unicode="0" d="M360 111v370q0 13 -4 22q-18 35 -51 55q-11 6 -23 6h-131q-13 0 -23 -6q-33 -20 -51 -55q-3 -7 -3 -22v-370q0 -14 3 -21q7 -15 22.5 -31.5t28.5 -24.5q9 -5 23 -5h131q14 0 23 5q13 8 28.5 24.5t22.5 31.5q4 8 4 21zM396 109q0 -26 -13 -46q-5 -8 -21.5 -27t-25.5 -25 q-22 -17 -53 -17h-133q-30 0 -52 17q-9 6 -25.5 25t-21.5 27q-13 20 -13 46v374q0 27 13 47q5 8 21.5 27t25.5 25q22 17 52 17h133q31 0 53 -17q9 -6 25.5 -25t21.5 -27q13 -20 13 -47v-374z"/>
<glyph glyph-name="one" horiz-adv-x="494" unicode="1" d="M383 0h-313v35h144v524h-144v35h180v-559h133v-35z"/>
<glyph glyph-name="two" horiz-adv-x="493" unicode="2" d="M396 410q0 -58 -56 -87l-216 -113q-38 -20 -38 -59v-116h302v-35h-338v156q0 55 57 85l217 113q36 19 36 58v69q0 13 -4 22q-8 15 -22.5 32t-27.5 24q-9 5 -24 5h-117q-13 0 -21 -5q-16 -9 -35.5 -31t-29.5 -43l-35 12q32 59 72 87q22 15 45 15h122q31 0 53 -17 q9 -6 25.5 -25t21.5 -27q13 -20 13 -47v-73z"/>
<glyph glyph-name="three" horiz-adv-x="493" unicode="3" d="M396 109q0 -27 -13 -47q-5 -8 -21.5 -27t-25.5 -25q-22 -17 -52 -17h-124q-23 0 -44 16q-43 32 -72 85l36 12q11 -20 31 -42t35 -31q8 -4 18 -4h119q14 0 23 5q32 19 50 55q4 8 4 21v92q0 13 -4 21q-19 36 -51 54q-10 6 -21 6h-126v35h125q15 0 22 4q32 18 51 54 q4 9 4 22v83q0 13 -4 22q-8 15 -23 32.5t-28 24.5q-7 4 -23 4h-118q-13 0 -21 -4q-15 -9 -34 -31.5t-30 -43.5l-35 11q36 63 73 89q21 14 44 14h123q30 0 52 -17q9 -6 25.5 -25t21.5 -27q13 -20 13 -47v-87q0 -27 -13 -46q-5 -8 -47 -50q42 -42 47 -50q13 -19 13 -46v-95z "/>
<glyph glyph-name="four" horiz-adv-x="494" unicode="4" d="M315 175v387h-15l-226 -387h241zM415 140h-64v-140h-36v140h-281v35l246 419h71v-419h64v-35z"/>
<glyph glyph-name="five" horiz-adv-x="494" unicode="5" d="M398 110q0 -27 -13 -47q-5 -8 -21.5 -27t-25.5 -25q-22 -17 -53 -17h-126q-21 0 -45 15q-39 25 -74 88l36 10q30 -53 66 -74q8 -4 19 -4h123q15 0 24 5q13 7 27.5 24t22.5 32q4 8 4 21v118q0 14 -4 23q-7 15 -22 30.5t-28 23.5q-9 5 -24 5h-220v283h303v-35h-267v-213 h187q31 0 53 -18q9 -8 24.5 -25t20.5 -25q13 -20 13 -46v-122z"/>
<glyph glyph-name="six" horiz-adv-x="494" unicode="6" d="M360 111v131q0 13 -4 21q-18 34 -50 52q-10 6 -23 6h-113q-12 0 -22 -5q-38 -22 -66 -63q-7 -11 -7 -17v-125q0 -13 4 -21q7 -15 22.5 -31.5t28.5 -24.5q9 -5 22 -5h131q14 0 23 5q13 7 27.5 24t22.5 32q4 8 4 21zM396 110q0 -27 -13 -47q-5 -8 -21.5 -27t-25.5 -25 q-22 -17 -52 -17h-133q-30 0 -52 17q-9 6 -25.5 25t-21.5 27q-13 20 -13 47v373q0 27 13 47q5 8 21.5 27t25.5 25q22 17 52 17h122q24 0 45 -14q41 -28 75 -88l-36 -11q-10 18 -31 41t-36 32q-7 5 -20 5h-119q-13 0 -22 -5q-29 -16 -50 -56q-4 -9 -4 -22v-187q19 29 51 50 q18 12 45 12h113q33 0 52 -16q10 -8 26.5 -25.5t20.5 -24.5q13 -21 13 -47v-133z"/>
<glyph glyph-name="seven" horiz-adv-x="494" unicode="7" d="M392 558l-255 -558l-41 1l256 557h-311v36h351v-36z"/>
<glyph glyph-name="eight" horiz-adv-x="494" unicode="8" d="M363 111v91q0 13 -4 21q-17 34 -51 54q-10 6 -22 6h-132q-12 0 -23 -6q-13 -8 -28 -23.5t-22 -30.5q-4 -8 -4 -21v-91q0 -13 4 -21q8 -15 22.5 -32t27.5 -24q9 -5 23 -5h132q13 0 22 5q13 8 28.5 24.5t22.5 31.5q4 8 4 21zM363 399v82q0 13 -4 22q-7 15 -22.5 31.5 t-28.5 24.5q-9 5 -22 5h-132q-14 0 -23 -5q-29 -16 -50 -56q-4 -9 -4 -22v-82q0 -13 4 -22q20 -38 50 -55q7 -4 23 -4h132q13 0 22 5q34 20 51 54q4 9 4 22zM399 110q0 -27 -13 -47q-5 -8 -21.5 -27t-25.5 -25q-22 -17 -52 -17h-134q-30 0 -52 17q-9 6 -25.5 25t-21.5 27 q-13 20 -13 47v94q0 27 13 46q7 11 46 50q-35 33 -46 51q-13 19 -13 46v86q0 27 13 48q4 7 21 25t26 26q22 17 52 17h134q30 0 52 -17q9 -8 26 -26t21 -25q13 -21 13 -48v-86q0 -27 -13 -46q-11 -18 -46 -51q39 -39 46 -50q13 -19 13 -46v-94z"/>
<glyph glyph-name="nine" horiz-adv-x="494" unicode="9" d="M73 482v-131q0 -13 4 -21q18 -34 50 -52q11 -6 23 -6h113q12 0 22 5q38 22 66 63q7 10 7 17v125q0 13 -4 21q-7 15 -22.5 31.5t-28.5 24.5q-9 5 -22 5h-131q-14 0 -23 -5q-13 -7 -27.5 -24t-22.5 -32q-4 -8 -4 -21zM37 483q0 27 13 47q5 8 21.5 27t25.5 25q22 17 52 17 h133q30 0 52 -17q9 -6 25.5 -25t21.5 -27q13 -20 13 -47v-373q0 -27 -13 -47q-5 -8 -21.5 -27t-25.5 -25q-22 -17 -52 -17h-122q-24 0 -45 14q-41 28 -75 88l36 11q10 -18 31 -41t36 -32q8 -5 20 -5h119q13 0 22 5q29 16 50 56q4 9 4 22v187q-19 -29 -51 -50 q-18 -12 -45 -12h-113q-33 0 -52 16q-10 8 -26.5 25.5t-20.5 24.5q-13 21 -13 47v133z"/>
<glyph glyph-name="colon" horiz-adv-x="215" unicode=":" d="M107 0h-61v65h61v-65zM107 299h-61v65h61v-65z"/>
<glyph glyph-name="semicolon" horiz-adv-x="211" unicode=";" d="M105 64l-57 -151h-40l60 165zM108 299h-61v65h61v-65z"/>
<glyph glyph-name="less" horiz-adv-x="717" unicode="&lt;" d="M614 284h-528l271 -284h-45l-291 301l291 302h44l-270 -284h528v-35z"/>
<glyph glyph-name="equal" horiz-adv-x="471" unicode="=" d="M366 166h-324v36h324v-36zM366 296h-324v36h324v-36z"/>
<glyph glyph-name="greater" horiz-adv-x="717" unicode="&gt;" d="M617 301l-291 -301h-44l271 284h-529v35h529l-272 284h45z"/>
<glyph glyph-name="question" horiz-adv-x="444" unicode="?" d="M234 0h-59v63h59v-63zM381 410q0 -57 -56 -87l-65 -35q-15 -8 -26.5 -24.5t-11.5 -34.5v-54h-36v59q0 53 59 84l65 37q35 19 35 57l1 68q0 13 -4 22q-7 15 -23 31.5t-29 24.5q-9 5 -23 5h-117q-14 0 -20 -4q-16 -9 -37 -32t-30 -43l-35 11q34 63 73 88q24 15 46 15h121 q31 0 53 -17q9 -6 25.5 -25t21.5 -27q13 -20 13 -47v-72z"/>
<glyph glyph-name="at" horiz-adv-x="636" unicode="@" d="M255 111q0 -16 4 -23q21 -38 53 -55q8 -5 25 -5h46q11 0 21 5q21 11 47.5 31t36.5 38q3 6 3 12v195q0 6 -3 12q-10 17 -39 39t-47 31q-10 4 -19 4h-46q-14 0 -24 -5q-33 -18 -54 -57q-4 -7 -4 -22v-200zM398 599q26 0 48 -14q33 -22 67 -70q12 -17 12 -47v-395l9 -73h-36 l-8 60q-18 -23 -57 -48q-26 -17 -47 -17h-50q-37 0 -58 18q-25 21 -46 48q-13 17 -13 49v204q0 32 14 49q20 24 45 48q22 18 58 18h50q20 0 46 -18q38 -26 59 -50v108q0 14 -4 21q-11 18 -33.5 41t-34.5 30q-9 5 -20 5h-232q-13 0 -21 -5q-14 -9 -35 -31t-31 -40 q-4 -7 -4 -21v-506q0 -12 4 -19q11 -17 32.5 -38t35.5 -29q10 -6 20 -6h50l5 -35h-55q-26 0 -48 15q-12 8 -34.5 31.5t-33.5 37.5q-11 15 -11 46v502q0 34 10 46q35 46 69 71q18 14 48 14h230z"/>
<glyph glyph-name="A" horiz-adv-x="512" unicode="A" d="M361 177l-121 383h-28l-120 -383h269zM455 0h-38l-46 142h-289l-47 -142h-37l192 594h73z"/>
<glyph glyph-name="B" horiz-adv-x="530" unicode="B" d="M392 117v86q0 13 -4 21q-17 34 -51 53q-7 5 -21 5h-230v-247h227q14 0 23 5q13 8 29 24.5t23 31.5q4 8 4 21zM392 398v78q0 13 -4 21q-19 37 -52 57q-9 5 -23 5h-227v-242h231q11 0 21 6q31 17 50 53q4 9 4 22zM428 115q0 -27 -12 -46q-5 -8 -22 -26.5t-26 -25.5 q-22 -17 -52 -17h-266v594h266q29 0 52 -18q10 -8 27 -26t21 -25q12 -20 12 -48v-80q0 -27 -12 -47q-11 -19 -46 -50q35 -31 46 -50q12 -19 12 -47v-88z"/>
<glyph glyph-name="C" horiz-adv-x="517" unicode="C" d="M430 97q-35 -61 -75 -88q-24 -15 -44 -15h-141q-21 0 -45 15q-12 7 -34 30.5t-30 36.5q-11 17 -11 43v355q0 27 11 43q8 13 30.5 37t33.5 31q23 15 44 15h142q20 0 44 -15q40 -27 75 -88l-35 -11q-12 22 -32 44t-36 31q-8 4 -19 4h-137q-9 0 -17 -4q-14 -8 -33.5 -28 t-29.5 -38q-5 -8 -5 -23v-353q0 -8 5 -18q10 -18 30.5 -39t34.5 -29q8 -4 17 -4h136q10 0 18 4q15 9 34.5 31.5t31.5 42.5z"/>
<glyph glyph-name="D" horiz-adv-x="529" unicode="D" d="M393 125v342q0 13 -4 20q-11 19 -30 40t-32 28q-8 4 -18 4h-223v-524h220q10 0 18 4q14 8 34.5 29t30.5 39q4 8 4 18zM429 125q0 -24 -11 -43q-9 -15 -29.5 -36.5t-34.5 -30.5q-24 -15 -44 -15h-260v594h260q23 0 44 -14q12 -7 34 -31.5t30 -37.5q11 -19 11 -43v-343z "/>
<glyph glyph-name="E" horiz-adv-x="491" unicode="E" d="M378 0h-328v594h328v-35h-292v-242h273v-35h-273v-247h292v-35z"/>
<glyph glyph-name="F" horiz-adv-x="464" unicode="F" d="M378 559h-292v-242h274v-35h-274v-282h-36v594h328v-35z"/>
<glyph glyph-name="G" horiz-adv-x="571" unicode="G" d="M466 0h-33l-7 60q-24 -29 -50 -48q-20 -15 -44 -15h-162q-21 0 -45 15q-12 7 -34 30.5t-30 36.5q-11 17 -11 43v351q0 28 11 44q7 12 30.5 36t35.5 32q22 15 43 15h163q23 0 45 -15q38 -27 74 -88l-36 -11q-11 21 -31.5 43.5t-35.5 31.5q-8 4 -19 4h-156q-9 0 -17 -4 q-14 -8 -36 -29.5t-32 -39.5q-3 -5 -3 -20v-349q0 -12 3 -18q10 -18 32 -39.5t36 -29.5q8 -4 18 -4h154q10 0 18 4q15 9 36 28.5t31 37.5q4 8 4 19v161h-146v35h182l1 -224q5 -48 11 -93z"/>
<glyph glyph-name="H" horiz-adv-x="545" unicode="H" d="M433 0h-36v282h-311v-282h-36v594h36v-277h311v277h36v-594z"/>
<glyph glyph-name="I" horiz-adv-x="198" unicode="I" d="M86 0h-36v594h36v-594z"/>
<glyph glyph-name="J" horiz-adv-x="428" unicode="J" d="M326 121q0 -26 -12 -44q-8 -13 -30 -36.5t-33 -30.5q-24 -15 -45 -15h-77q-21 0 -45 15q-32 20 -74 88l35 10q39 -62 67 -74q8 -4 20 -4h72q10 0 17 4q14 8 34 29t30 39q5 13 5 18v474h36v-473z"/>
<glyph glyph-name="K" horiz-adv-x="482" unicode="K" d="M417 0h-48l-258 280h-25v-280h-36v594h36v-281h25l257 281h46l-272 -297z"/>
<glyph glyph-name="L" horiz-adv-x="445" unicode="L" d="M372 0h-322v594h36v-559h286v-35z"/>
<glyph glyph-name="M" horiz-adv-x="638" unicode="M" d="M526 0h-36v562h-11l-180 -396h-23l-180 394h-10v-560h-36v594h70l167 -372l168 372h71v-594z"/>
<glyph glyph-name="N" horiz-adv-x="540" unicode="N" d="M428 0h-69l-263 561h-10v-561h-36v594h69l264 -560h9v560h36v-594z"/>
<glyph glyph-name="O" horiz-adv-x="557" unicode="O" d="M421 120v354q0 13 -4 20q-10 18 -30.5 38.5t-34.5 28.5q-8 4 -18 4h-161q-9 0 -17 -4q-14 -8 -34.5 -28.5t-30.5 -38.5q-5 -8 -5 -20v-355q0 -12 4 -19q10 -16 32.5 -38t33.5 -29q8 -4 17 -4h161q10 0 18 4q14 8 34 28.5t31 38.5q4 7 4 20zM457 120q0 -28 -11 -44 q-8 -13 -30 -36.5t-34 -30.5q-24 -15 -45 -15h-168q-20 0 -44 15q-12 8 -35 31.5t-30 35.5q-10 15 -10 44v353q0 26 10 43q8 12 30.5 36.5t34.5 32.5q22 15 44 15h168q23 0 45 -15q12 -8 34 -32t30 -36q11 -19 11 -44v-353z"/>
<glyph glyph-name="P" horiz-adv-x="511" unicode="P" d="M393 393v83q0 13 -4 22q-20 38 -51 55q-10 6 -23 6h-229v-245h229q13 0 22 5q14 8 30 23.5t23 29.5q3 7 3 21zM429 392q0 -26 -13 -46q-5 -8 -22 -26t-27 -25q-22 -16 -51 -16h-230v-279h-36v594h266q29 0 51 -17q10 -7 27 -25.5t22 -26.5q13 -20 13 -47v-86z"/>
<glyph glyph-name="Q" horiz-adv-x="557" unicode="Q" d="M422 120v354q0 13 -4 20q-10 18 -30.5 38.5t-34.5 28.5q-8 4 -18 4h-161q-9 0 -17 -4q-14 -8 -34.5 -28.5t-30.5 -38.5q-5 -8 -5 -20v-355q0 -12 4 -19q10 -16 32.5 -38t33.5 -29q8 -4 17 -4h93l-14 36l31 11l19 -47h32q10 0 18 4q14 8 34 28.5t31 38.5q4 7 4 20z M458 120q0 -28 -11 -44q-8 -13 -30 -36.5t-34 -30.5q-24 -15 -45 -15h-22l36 -90h-35l-35 90h-112q-20 0 -44 15q-12 8 -35 31.5t-30 35.5q-10 15 -10 44v353q0 26 10 43q8 12 30.5 36.5t34.5 32.5q22 15 44 15h168q23 0 45 -15q12 -8 34 -32t30 -36q11 -19 11 -44v-353z "/>
<glyph glyph-name="R" horiz-adv-x="544" unicode="R" d="M393 393v83q0 13 -4 22q-20 38 -51 55q-10 6 -23 6h-229v-245h229q13 0 22 5q14 8 30 23.5t23 29.5q3 7 3 21zM429 392q0 -26 -13 -46q-5 -8 -22 -26t-27 -25q-22 -16 -51 -16h-24l160 -279h-41l-160 279h-165v-279h-36v594h266q29 0 51 -17q10 -7 27 -25.5t22 -26.5 q13 -20 13 -47v-86z"/>
<glyph glyph-name="S" horiz-adv-x="540" unicode="S" d="M445 120q0 -25 -11 -44q-7 -12 -30 -35.5t-35 -31.5q-24 -15 -44 -15h-172q-25 0 -45 15q-43 32 -73 88l36 10q11 -21 31.5 -43.5t35.5 -30.5q8 -4 18 -4h165q10 0 17 4q15 8 36 28.5t31 38.5q4 8 4 21v65q0 48 -40 60l-268 76q-26 7 -42 31t-16 55v65q0 27 10 44 q8 12 30.5 36t34.5 32q22 15 44 15h150q20 0 44 -15q39 -25 75 -88l-36 -11q-9 20 -30 42.5t-37 32.5q-8 4 -19 4h-143q-10 0 -18 -4q-14 -8 -35 -29.5t-31 -39.5q-3 -8 -3 -19v-62q0 -46 38 -58l272 -76q26 -7 41 -30t15 -54v-73z"/>
<glyph glyph-name="T" horiz-adv-x="454" unicode="T" d="M384 559h-174v-559h-36v559h-174v35h384v-35z"/>
<glyph glyph-name="U" horiz-adv-x="526" unicode="U" d="M424 119q0 -24 -11 -43q-8 -13 -30 -36.5t-34 -30.5q-24 -15 -44 -15h-143q-21 0 -45 15q-12 7 -34 30.5t-30 36.5q-11 17 -11 43v475h36v-476q0 -6 5 -19q10 -18 31 -38t36 -28q8 -4 17 -4h133q10 0 18 4q15 8 36 28.5t30 37.5q4 10 4 19v476h36v-475z"/>
<glyph glyph-name="V" horiz-adv-x="500" unicode="V" d="M446 594l-189 -594h-73l-189 594h38l177 -559h22l176 559h38z"/>
<glyph glyph-name="W" horiz-adv-x="680" unicode="W" d="M624 594l-130 -594h-64l-122 541l-121 -541h-65l-126 594h36l116 -558h14l125 558h43l125 -558h14l118 558h37z"/>
<glyph glyph-name="X" horiz-adv-x="467" unicode="X" d="M402 594l-180 -294l185 -300h-40l-164 268l-164 -268h-40l184 300l-179 294h39l160 -262l160 262h39z"/>
<glyph glyph-name="Y" horiz-adv-x="445" unicode="Y" d="M398 594l-184 -329v-265h-36v265l-183 329h40l161 -292l162 292h40z"/>
<glyph glyph-name="Z" horiz-adv-x="465" unicode="Z" d="M382 0h-348v34l308 525h-308v35h348v-36l-307 -523h307v-35z"/>
<glyph glyph-name="bracketleft" horiz-adv-x="282" unicode="[" d="M172 0h-131v594h131v-34h-96v-526h96v-34z"/>
<glyph glyph-name="backslash" horiz-adv-x="413" unicode="\" d="M369 0h-38l-301 594h37z"/>
<glyph glyph-name="bracketright" horiz-adv-x="276" unicode="]" d="M177 0h-132v34h96v526h-96v34h132v-594z"/>
<glyph glyph-name="asciicircum" horiz-adv-x="298" unicode="^" d="M18 316l89 278h43l88 -278h-35l-74 247l-77 -247h-34z"/>
<glyph glyph-name="underscore" horiz-adv-x="447" unicode="_" d="M377 -56h-342v33h342v-33z"/>
<glyph glyph-name="grave" horiz-adv-x="361" unicode="`" d="M250 522l-31 -13l-106 134h42z"/>
<glyph glyph-name="a" horiz-adv-x="465" unicode="a" d="M329 102v109h-195q-14 0 -25 -6q-30 -18 -46 -51q-4 -8 -4 -22v-24q0 -13 4 -21q17 -34 48 -53q11 -6 26 -6h93q9 0 19 5q60 32 80 69zM373 0h-34l-8 56q-18 -24 -54 -46q-25 -15 -44 -15h-98q-32 0 -55 18q-24 18 -42 47q-13 19 -13 49v21q0 31 13 50q17 27 42 46 q23 18 55 18h194v76q0 14 -3 21q-7 15 -22.5 31.5t-28.5 24.5q-9 5 -23 5h-105q-11 0 -22 -6q-15 -8 -46 -50l-33 13q30 44 50 59q22 17 54 17h102q33 0 56 -18q26 -20 43 -47q12 -17 12 -50v-246z"/>
<glyph glyph-name="b" horiz-adv-x="473" unicode="b" d="M344 111v208q0 15 -4 23q-20 38 -50 55q-9 5 -23 5h-85q-11 0 -19 -4q-70 -39 -83 -74v-217q9 -20 36 -42.5t47 -32.5q8 -4 19 -4h84q12 0 23 6q32 18 51 54q4 8 4 23zM378 109q0 -30 -13 -49q-17 -27 -43 -47q-23 -18 -55 -18h-88q-21 0 -46 15q-27 17 -54 47l-7 -57 h-34l8 67v527h34v-221q16 21 54 48q20 14 45 14h88q33 0 55 -17q18 -14 43 -48q13 -19 13 -48v-213z"/>
<glyph glyph-name="c" d="M367 72q-27 -42 -49 -59q-23 -18 -55 -18h-112q-33 0 -56 18q-24 19 -43 48q-12 17 -12 49v210q0 32 12 49q19 29 43 48q23 18 56 18h109q32 0 55 -18q27 -22 50 -59l-34 -11q-20 34 -48 50q-9 5 -23 5h-110q-14 0 -23 -5q-32 -19 -50 -55q-3 -6 -3 -22v-210q0 -16 3 -22 q7 -14 23 -30.5t29 -24.5q9 -5 23 -5h112q14 0 23 5q25 14 47 51z" unicode="c"/>
<glyph glyph-name="d" horiz-adv-x="473" unicode="d" d="M74 319v-208q0 -15 4 -23q19 -36 51 -54q11 -6 23 -6h84q11 0 19 4q20 10 47 32.5t36 42.5v217q-13 35 -83 74q-8 4 -19 4h-85q-14 0 -23 -5q-30 -17 -50 -55q-4 -8 -4 -23zM40 109v213q0 29 13 48q25 34 43 48q22 17 55 17h88q25 0 45 -14q38 -27 54 -48v221h34v-527 l8 -67h-34l-7 57q-27 -30 -54 -47q-25 -15 -46 -15h-88q-32 0 -55 18q-26 20 -43 47q-13 19 -13 49z"/>
<glyph glyph-name="e" horiz-adv-x="463" unicode="e" d="M339 230v89q0 17 -2 22q-7 15 -23 31.5t-29 24.5q-9 5 -23 5h-111q-13 0 -22 -5q-13 -8 -29 -24.5t-23 -31.5q-3 -6 -3 -22v-89h265zM373 197h-299v-85q0 -16 3 -22q19 -37 52 -57q9 -5 22 -5h113q14 0 24 6q21 13 48 51l32 -13q-27 -42 -49 -59q-23 -18 -55 -18h-112 q-33 0 -56 18q-24 19 -43 48q-13 19 -13 49v210q0 30 13 49q19 29 43 48q23 18 56 18h110q33 0 56 -18q24 -19 43 -48q12 -17 12 -49v-123z"/>
<glyph glyph-name="f" horiz-adv-x="313" unicode="f" d="M250 397h-130v-397h-34v397h-71v33h71v62q0 27 12 44q17 27 43 47q22 17 56 17h70v-32h-70q-17 0 -26 -6q-31 -19 -48 -51q-3 -7 -3 -19v-62h130v-33z"/>
<glyph glyph-name="g" horiz-adv-x="480" unicode="g" d="M344 105v219l-4 7q-12 17 -36.5 37.5t-40.5 29.5q-8 4 -20 4h-92q-14 0 -23 -5q-33 -20 -51 -55q-3 -6 -3 -23v-209q0 -17 3 -23q17 -34 51 -54q9 -5 23 -5h93q12 0 20 4q16 9 40 29t36 37zM385 430l-7 -64v-421q0 -32 -12 -49q-17 -27 -43 -47q-23 -18 -56 -18h-112 q-32 0 -55 18t-49 59l33 12q28 -40 46 -50q10 -6 22 -6h117q13 0 23 6q32 19 49 53q3 7 3 23v113q-20 -23 -51 -48q-22 -16 -46 -16h-96q-34 0 -56 17q-24 19 -43 48q-12 17 -12 48v213q0 32 12 49q17 26 45 48q22 17 54 17h95q22 0 46 -17q43 -35 51 -46l8 58h34z"/>
<glyph glyph-name="h" horiz-adv-x="469" unicode="h" d="M257 402h-78q-11 0 -19 -4q-70 -39 -83 -74v-324h-34v594h34v-222q9 16 55 48q21 15 44 15h82q33 0 55 -17q24 -19 43 -48q13 -19 13 -49v-321h-34v319q0 17 -3 23q-8 14 -23.5 31t-28.5 24q-9 5 -23 5z"/>
<glyph glyph-name="i" horiz-adv-x="191" unicode="i" d="M93 553h-54v56h54v-56zM83 0h-34v430h34v-430z"/>
<glyph glyph-name="j" horiz-adv-x="200" unicode="j" d="M102 553h-54v56h54v-56zM92 -57q0 -33 -11 -49q-17 -27 -43 -47q-20 -16 -55 -16h-53v33h52q18 0 24 4q29 16 49 54q3 6 3 23v485h34v-487z"/>
<glyph glyph-name="k" horiz-adv-x="392" unicode="k" d="M353 0h-48l-206 211h-24v-211h-34v594h34v-351h23l192 187h45l-206 -202z"/>
<glyph glyph-name="l" horiz-adv-x="184" unicode="l" d="M86 0h-34q-1 5 -3 18t-3.5 24t-1.5 17v535h34v-525q0 -11 4 -38t4 -31z"/>
<glyph glyph-name="m" horiz-adv-x="704" unicode="m" d="M228 402h-45q-11 0 -19 -4q-70 -39 -83 -74v-324h-34v366l-7 64h34l7 -56q13 17 55 46q21 15 44 15h49q33 0 56 -18q24 -20 42 -47l3 -6q19 23 60 55q20 16 46 16h55q33 0 56 -18q24 -19 43 -48q12 -17 12 -49v-320h-34v318q0 16 -3 22q-8 15 -23.5 33t-28.5 25 q-6 4 -23 4h-51q-14 0 -20 -4q-54 -33 -78 -72v-326h-34v318q0 14 -4 22q-8 15 -23 32.5t-28 24.5q-8 5 -24 5z"/>
<glyph glyph-name="n" horiz-adv-x="473" unicode="n" d="M40 430h34l7 -56q13 17 55 46q21 15 44 15h82q33 0 55 -17q24 -19 43 -48q13 -19 13 -49v-321h-34v319q0 17 -3 23q-8 14 -23.5 31t-28.5 24q-9 5 -23 5h-78q-11 0 -19 -4q-70 -39 -83 -74v-324h-34v366z"/>
<glyph glyph-name="o" d="M333 110v211q0 15 -3 22q-17 33 -52 54q-9 5 -23 5h-109q-14 0 -23 -5q-34 -20 -51 -54q-3 -6 -3 -22v-211q0 -16 3 -22q7 -14 23 -30.5t29 -24.5q9 -5 23 -5h109q14 0 23 5q33 20 51 55q3 7 3 22zM367 320v-210q0 -32 -12 -49q-19 -29 -43 -48q-23 -18 -56 -18h-110 q-33 0 -56 18q-24 19 -43 48q-12 17 -12 49v210q0 32 12 49q19 29 43 48q23 18 56 18h110q33 0 56 -18q24 -19 43 -48q12 -17 12 -49z" unicode="o"/>
<glyph glyph-name="p" horiz-adv-x="468" unicode="p" d="M344 111v208q0 15 -4 23q-20 37 -50 54q-10 6 -23 6h-85q-11 0 -19 -4q-20 -10 -47 -32.5t-36 -42.5v-217q13 -35 83 -74q8 -4 19 -4h86q14 0 23 5q28 16 49 55q4 8 4 23zM378 321v-213q0 -29 -13 -48q-25 -34 -43 -48q-22 -17 -55 -17h-88q-24 0 -45 15q-45 31 -54 48 v-222h-34v527l-8 67h34l7 -57q27 30 54 47q25 15 46 15h88q32 0 55 -18q26 -20 43 -47q13 -19 13 -49z"/>
<glyph glyph-name="q" horiz-adv-x="472" unicode="q" d="M74 319v-208q0 -15 4 -23q20 -38 50 -55q9 -5 23 -5h85q11 0 19 4q70 39 83 74v217q-9 20 -36 42.5t-47 32.5q-8 4 -19 4h-84q-12 0 -23 -6q-32 -18 -51 -54q-4 -8 -4 -23zM40 108v213q0 30 13 49q17 27 43 47q23 18 55 18h88q21 0 46 -15q27 -17 54 -47l7 57h34l-8 -67 v-527h-34v221q-8 -15 -54 -47q-21 -15 -45 -15h-88q-33 0 -55 17q-18 14 -43 48q-13 19 -13 48z"/>
<glyph glyph-name="r" horiz-adv-x="392" unicode="r" d="M230 402h-48q-11 0 -19 -4q-70 -39 -83 -74v-324h-34v366l-7 64h34l7 -56q13 17 55 46q21 15 44 15h49q32 0 55 -18q22 -17 49 -59l-33 -13q-30 43 -46 52q-9 5 -23 5z"/>
<glyph glyph-name="s" horiz-adv-x="447" unicode="s" d="M357 106q0 -31 -13 -50q-15 -24 -39 -42q-24 -19 -55 -19h-120q-32 0 -55 18q-26 21 -48 59l32 13q23 -39 46 -52q9 -5 23 -5h121q14 0 23 5q33 19 48 50q3 6 3 24v38q0 21 -14 35t-33 16l-165 12q-35 2 -56.5 26t-21.5 58v32q0 31 13 50q16 25 39 43t55 18h104 q32 0 55 -18q22 -17 49 -59l-31 -12q-21 36 -48 51q-9 5 -22 5h-106q-16 0 -25 -5q-31 -19 -46 -49q-3 -6 -3 -25v-31q0 -21 14 -35t33 -16l165 -12q35 -2 56.5 -26.5t21.5 -58.5v-38z"/>
<glyph glyph-name="t" horiz-adv-x="312" unicode="t" d="M242 397h-132v-281q0 -18 3 -25q18 -34 50 -52q10 -6 25 -6h53v-33h-54q-32 0 -55 18q-26 20 -43 47q-13 19 -13 49v283h-71v33h71v164h34v-164h132v-33z"/>
<glyph glyph-name="u" horiz-adv-x="467" unicode="u" d="M373 0h-34l-7 56q-13 -17 -55 -46q-21 -15 -44 -15h-82q-33 0 -55 17q-24 19 -43 48q-13 19 -13 49v321h34v-319q0 -17 3 -23q8 -14 23.5 -31t28.5 -24q9 -5 23 -5h78q11 0 19 4q70 39 83 74v324h34v-366z"/>
<glyph glyph-name="v" horiz-adv-x="400" unicode="v" d="M338 430l-133 -430h-61l-135 430h37l120 -394h17l119 394h36z"/>
<glyph glyph-name="w" horiz-adv-x="642" unicode="w" d="M579 430l-118 -430h-61l-105 389l-107 -389h-60l-117 430h35l105 -396h15l105 396h47l104 -396h16l106 396h35z"/>
<glyph glyph-name="x" horiz-adv-x="417" unicode="x" d="M339 0h-41l-117 193l-115 -193h-41l136 221l-130 209h41l110 -184l107 184h42l-129 -209z"/>
<glyph glyph-name="y" horiz-adv-x="400" unicode="y" d="M338 430l-185 -594h-38l55 164h-26l-135 430h37l121 -395h14l121 395h36z"/>
<glyph glyph-name="z" horiz-adv-x="409" unicode="z" d="M329 0h-294v29l242 368h-250v33h291v-31l-242 -366h253v-33z"/>
<glyph glyph-name="braceleft" horiz-adv-x="339" unicode="{" d="M204 -4h-44q-20 0 -44 15q-12 8 -34.5 32t-30.5 36q-9 14 -9 44v350q0 27 10 44q8 13 29.5 36.5t33.5 31.5q22 15 45 15h44v-33h-42q-10 0 -18 -4q-14 -8 -34 -29t-30 -39q-3 -6 -3 -22v-352q0 -14 3 -20q10 -18 31.5 -39t35.5 -29q8 -4 18 -4h39v-33z"/>
<glyph glyph-name="bar" horiz-adv-x="153" unicode="|" d="M63 -93h-33v770h33v-770z"/>
<glyph glyph-name="braceright" horiz-adv-x="329" unicode="}" d="M111 -4h-44v33h39q10 0 18 4q14 8 35.5 29t31.5 39q3 6 3 20v352q0 16 -3 22q-10 18 -30 39t-34 29q-8 4 -18 4h-42v33h44q23 0 45 -15q12 -8 33.5 -31.5t29.5 -36.5q10 -17 10 -44v-350q0 -30 -9 -44q-8 -12 -30.5 -36t-34.5 -32q-24 -15 -44 -15z"/>
<glyph glyph-name="asciitilde" horiz-adv-x="386" unicode="~" d="M291 224l-32 -10q-16 35 -47 35q-1 0 -3.5 -0.5t-4.5 -0.5l-69 -22q-11 -4 -24 -4q-24 0 -44.5 15t-29.5 43l32 10q15 -34 47 -34q5 0 8 1l71 22q11 4 23 4q24 0 43.5 -15.5t29.5 -43.5z"/>
<glyph glyph-name="nbspace" horiz-adv-x="225" unicode=" "/>
<glyph glyph-name="exclamdown" horiz-adv-x="209" unicode="¡" d="M45 598h59v-63h-59v63zM90 0h-34v410h34v-410z"/>
<glyph glyph-name="cent" horiz-adv-x="446" unicode="¢" d="M129 33q9 -5 23 -5h33v374h-33q-14 0 -23 -5q-13 -8 -29.5 -25t-23.5 -32q-2 -4 -2 -22v-206q0 -18 2 -22q7 -15 23.5 -32t29.5 -25zM367 72q-27 -42 -49 -59q-23 -18 -55 -18h-44v-91h-34v91h-34q-33 0 -56 18q-24 19 -43 48q-12 17 -12 49v210q0 32 12 49q19 29 43 48 q23 18 56 18h34v104h34v-104h41q32 0 55 -18q27 -22 49 -60l-31 -11q-21 36 -48 51q-9 5 -23 5h-43v-374h46q14 0 23 5q25 14 47 51z"/>
<glyph glyph-name="sterling" horiz-adv-x="578" unicode="£" d="M466 105q-26 -55 -74 -89q-26 -16 -45 -16h-263v170h-41v30h41v83h-41v31h41v160q0 26 10 43q8 13 30.5 37t34.5 31q24 15 45 15h115v-34h-114q-12 0 -20 -4q-15 -8 -33.5 -27t-28.5 -37q-3 -9 -3 -24v-160h238v-31h-238v-83h238v-30h-238v-136h224q10 0 20 5 q16 9 37 32.5t30 44.5z"/>
<glyph glyph-name="currency" horiz-adv-x="554" unicode="¤" d="M120 261q0 -11 2 -15q4 -9 15 -21.5t18 -16.5t16 -4h148q9 0 16 4t18 16.5t15 21.5q2 4 2 15v99q0 11 -2 15q-4 9 -15 21.5t-18 16.5t-16 4h-148q-9 0 -16 -4t-18 -16.5t-15 -21.5q-2 -4 -2 -15v-99zM97 221q-9 13 -9 36v107q0 23 9 36q9 12 16 19l-30 31l24 24l32 -32 q13 7 30 7h152q16 0 30 -7l34 34l24 -24l-33 -33q4 -4 9.5 -10.5t7.5 -8.5q9 -13 9 -36v-107q0 -23 -9 -36q-9 -12 -16 -19l32 -31l-24 -24l-34 32q-13 -7 -30 -7h-152q-19 0 -32 8l-31 -32l-24 24l30 30z"/>
<glyph glyph-name="yen" horiz-adv-x="471" unicode="¥" d="M416 594l-156 -282h115v-33h-136v-79h136v-33h-136v-167h-36v167h-142v33h142v79h-142v33h120l-154 282h39l153 -282h5l154 282h38z"/>
<glyph glyph-name="brokenbar" horiz-adv-x="188" unicode="¦" d="M63 -86h-33v333h33v-333zM63 344h-33v333h33v-333z"/>
<glyph glyph-name="section" horiz-adv-x="447" unicode="§" d="M276 375l-127 11q-16 0 -25 -5q-14 -9 -30 -25t-23 -30q-3 -6 -3 -25v-20q0 -21 13.5 -34.5t32.5 -15.5l135 -11q13 0 23 6q32 19 47 49q3 6 3 24v27q0 20 -13.5 33.5t-32.5 15.5zM114 423l165 -13q33 -2 55.5 -26.5t22.5 -58.5v-27q0 -31 -13 -50q-8 -13 -35 -38 q48 -24 48 -77v-28q0 -31 -13 -50q-15 -24 -39 -42q-24 -19 -55 -19h-120q-32 0 -55 18q-26 21 -48 59l31 12q21 -35 47 -50q9 -5 23 -5h121q14 0 23 5q32 19 47 49q3 6 3 24v28q0 20 -13.5 33.5t-32.5 15.5l-165 14q-31 3 -49 20q-11 11 -18 22q-11 18 -11 42v21 q0 31 13 50q14 22 40 42q-24 9 -38.5 30.5t-14.5 48.5v17q0 31 13 50q16 25 39 43t55 18h104q32 0 55 -18q22 -17 49 -59l-32 -12q-21 35 -47 50q-9 5 -22 5h-106q-16 0 -25 -5q-30 -18 -45 -48q-3 -6 -3 -25v-16q0 -21 13.5 -34.5t32.5 -15.5z"/>
<glyph glyph-name="dieresis" horiz-adv-x="363" unicode="¨" d="M159 553h-54v56h54v-56zM293 553h-54v56h54v-56z"/>
<glyph glyph-name="copyright" horiz-adv-x="621" unicode="©" d="M492 469q0 12 -5 20q-10 19 -31 41.5t-35 30.5q-7 4 -19 4h-239q-12 0 -19 -4q-14 -8 -34.5 -30.5t-30.5 -40.5q-4 -8 -4 -21v-345q0 -12 4 -20q9 -18 30.5 -40t35.5 -30q7 -4 18 -4h238q11 0 18 4q15 8 37.5 30t31.5 40q4 8 4 20v345zM526 122q0 -26 -12 -44 q-8 -12 -30 -35.5t-34 -31.5q-24 -15 -46 -15h-244q-21 0 -45 15q-12 8 -34 31.5t-30 35.5q-10 17 -10 44v348q0 27 10 44q8 13 30.5 38t34.5 32q24 15 45 15h243q22 0 46 -15q12 -7 34 -31.5t30 -37.5q12 -18 12 -44v-349zM405 190q-14 -17 -39 -39q-24 -20 -43 -20h-66 q-30 0 -53 18q-25 19 -41 45q-14 22 -14 48v113q0 26 14 48q17 28 41 46q20 16 53 16h66q20 0 42 -19q17 -16 38 -38l-29 -15q-35 33 -36 33q-8 6 -17 6h-63q-18 0 -24 -4q-28 -17 -47 -52q-4 -8 -4 -21v-111q0 -14 4 -22q19 -36 49 -54q6 -4 22 -4h63q12 0 17 4q1 0 36 33z "/>
<glyph glyph-name="ordfeminine" horiz-adv-x="372" unicode="ª" d="M237 394v116q0 11 -2 15q-11 24 -35 38q-8 4 -16 4h-64q-9 0 -16 -4q-24 -14 -35 -38q-2 -4 -2 -15v-116q0 -11 2 -15q12 -25 35 -38q7 -4 16 -4h55q7 0 15 4q37 21 45 38q2 5 2 15zM277 309h-30l-6 31l-13 -11q-30 -24 -50 -24h-62q-22 0 -41 14q-20 16 -31 35 q-9 12 -9 35v125q0 24 9 36q11 19 31 35q19 14 41 14h72q19 0 40 -17q3 -2 11 -10v23h30v-224q0 -10 4 -34t4 -28z"/>
<glyph glyph-name="guillemotleft" horiz-adv-x="526" unicode="«" d="M273 248l124 -142l-37 -12l-134 153l134 155l38 -13zM120 248l124 -142l-37 -12l-134 153l134 155l38 -13z"/>
<glyph glyph-name="logicalnot" horiz-adv-x="600" unicode="¬" d="M443 266l1 -161h-34v127h-386v34h419z"/>
<glyph glyph-name="registered" horiz-adv-x="621" unicode="®" d="M326 438q-11 6 -23 6h-103v-178h106q12 0 23 6q32 20 48 51q4 8 4 23v17q0 13 -4 21q-16 33 -51 54zM200 117h-34v360h138q32 0 55 -18q24 -18 42 -47q13 -19 13 -49v-16q0 -30 -13 -49q-16 -25 -43 -46q-7 -6 -21 -11l87 -124h-43l-78 116h-103v-116zM492 469 q0 12 -5 20q-10 19 -31 41.5t-35 30.5q-7 4 -19 4h-239q-12 0 -19 -4q-14 -8 -34.5 -30.5t-30.5 -40.5q-4 -8 -4 -21v-345q0 -12 4 -20q9 -18 30.5 -40t35.5 -30q7 -4 18 -4h238q11 0 18 4q15 8 37.5 30t31.5 40q4 8 4 20v345zM526 122q0 -26 -12 -44q-8 -12 -30 -35.5 t-34 -31.5q-24 -15 -46 -15h-244q-21 0 -45 15q-12 8 -34 31.5t-30 35.5q-10 17 -10 44v348q0 27 10 44q8 13 30.5 38t34.5 32q24 15 45 15h243q22 0 46 -15q12 -7 34 -31.5t30 -37.5q12 -18 12 -44v-349z"/>
<glyph glyph-name="macron" horiz-adv-x="301" unicode="¯" d="M201 562h-157v33h157v-33z"/>
<glyph glyph-name="degree" horiz-adv-x="374" unicode="°" d="M226 580q0 26 -17 43.5t-43 17.5t-42.5 -17.5t-16.5 -43.5q0 -28 16.5 -45t42.5 -17t43 17t17 45zM258 580q0 -39 -27 -65.5t-65 -26.5t-65 26.5t-27 65.5q0 37 27 64t65 27t65 -27t27 -64z"/>
<glyph glyph-name="plusminus" horiz-adv-x="518" unicode="±" d="M390 -56h-335v33h335v-33zM390 232h-150v-159h-34v159h-150v34h150v159h34v-159h150v-34z"/>
<glyph glyph-name="twosuperior" horiz-adv-x="297" unicode="²" d="M247 504q0 -46 -43 -59l-124 -42q-13 -6 -17.5 -12.5t-4.5 -23.5v-25h188v-34h-222v63q0 50 51 66q131 43 133 45q7 6 7 28q0 11 -2 15q-11 24 -35 38q-8 4 -16 4h-54q-10 0 -17 -4q-28 -17 -38 -29l-32 14q6 9 42 37q19 14 41 14h62q22 0 40 -14q7 -5 17.5 -16.5 t14.5 -18.5q9 -14 9 -36v-10z"/>
<glyph glyph-name="threesuperior" horiz-adv-x="298" unicode="³" d="M247 399v-9q0 -22 -9 -36q-4 -7 -14.5 -18.5t-17.5 -16.5q-18 -14 -40 -14h-62q-22 0 -41 12q-31 20 -42 39l31 14q8 -11 37 -29q7 -4 19 -4h54q8 0 16 4q24 14 35 38q2 4 2 15v4q0 13 -8.5 25.5t-21.5 13.5h-3h-76v30h76q15 0 24 12.5t9 26.5v4q0 11 -2 15 q-11 24 -35 38q-8 4 -16 4h-54q-10 0 -17 -3q-27 -12 -39 -30l-31 14q0 5 15 18.5t25 19.5q22 13 43 13h62q22 0 40 -14q7 -5 17.5 -16.5t14.5 -18.5q9 -14 9 -36v-9q0 -33 -23 -53q23 -20 23 -53z"/>
<glyph glyph-name="acute" horiz-adv-x="371" unicode="´" d="M288 643l-106 -134l-30 13l95 121h41z"/>
<glyph glyph-name="mu" horiz-adv-x="467" unicode="µ" d="M74 -164l-34 1v593h34v-324q13 -35 83 -74q8 -4 19 -4h54q11 0 19 4q70 39 83 74v324h34v-366l7 -64h-34l-8 56q-14 -18 -54 -46q-21 -15 -44 -15h-60q-23 0 -44 15q-37 25 -55 47v-221z"/>
<glyph glyph-name="paragraph" horiz-adv-x="512" unicode="¶" d="M274 314v245h-114q-15 0 -24 -5q-34 -21 -52 -57q-4 -9 -4 -22v-79q0 -13 4 -22q7 -14 23 -30.5t29 -24.5q9 -5 24 -5h114zM391 314v245h-81v-245h81zM427 0h-36v278h-81v-278h-36v278h-115q-30 0 -53 18q-37 31 -49 51q-13 20 -13 47v83q0 27 13 47q4 7 21.5 25.5 t27.5 26.5q23 18 53 18h268v-594z"/>
<glyph glyph-name="periodcentered" horiz-adv-x="286" unicode="·" d="M134 212h-58v78h58v-78z"/>
<glyph glyph-name="cedilla" horiz-adv-x="406" unicode="¸" d="M225 -53l-74 -113h-39l79 127z"/>
<glyph glyph-name="onesuperior" horiz-adv-x="298" unicode="¹" d="M216 308h-166v33h69v223h-59v34h94v-257h62v-33z"/>
<glyph glyph-name="ordmasculine" horiz-adv-x="391" unicode="º" d="M79 394q0 -11 2 -15q4 -9 15 -21.5t18 -16.5t16 -4h68q9 0 16 4t18 16.5t15 21.5q2 4 2 15v116q0 11 -2 15q-4 9 -15 21.5t-18 16.5t-16 4h-68q-9 0 -16 -4t-18 -16.5t-15 -21.5q-2 -4 -2 -15v-116zM56 354q-9 13 -9 36v124q0 23 9 36q18 24 32 35q17 14 40 14h72 q23 0 40 -14q14 -11 32 -35q9 -13 9 -36v-124q0 -23 -9 -36q-18 -24 -32 -35q-17 -14 -40 -14h-72q-23 0 -40 14q-14 11 -32 35z"/>
<glyph glyph-name="guillemotright" horiz-adv-x="526" unicode="»" d="M74 106l124 142l-125 141l38 13l134 -155l-134 -153zM227 106l124 142l-125 141l38 13l134 -155l-134 -153z"/>
<glyph glyph-name="onequarter" horiz-adv-x="654" unicode="¼" d="M465 108v130l-108 -130h108zM559 74h-59v-74h-35v74h-151v30l153 187h33v-183h59v-34zM210 308h-166v33h69v223h-59v34h94v-257h62v-33zM467 598l-301 -598h-38l302 598h37z"/>
<glyph glyph-name="onehalf" horiz-adv-x="652" unicode="½" d="M602 196q0 -46 -43 -59l-124 -42q-13 -6 -17.5 -12.5t-4.5 -23.5v-25h188v-34h-222v63q0 49 51 66q131 43 133 45q7 6 7 28q0 11 -2 15q-11 24 -35 38q-8 4 -16 4h-54q-10 0 -17 -4q-28 -17 -38 -29l-32 14q6 9 42 37q19 14 41 14h62q23 0 40 -14q7 -5 17.5 -16.5 t14.5 -18.5q9 -14 9 -36v-10zM467 598l-301 -598h-38l302 598h37zM210 308h-166v33h69v223h-59v34h94v-257h62v-33z"/>
<glyph glyph-name="threequarters" horiz-adv-x="654" unicode="¾" d="M247 399v-9q0 -22 -9 -36q-4 -7 -14.5 -18.5t-17.5 -16.5q-18 -14 -40 -14h-62q-22 0 -41 12q-31 20 -42 39l31 14q8 -11 37 -29q7 -4 19 -4h54q8 0 16 4q24 14 35 38q2 4 2 15v4q0 13 -8.5 25.5t-21.5 13.5h-3h-76v30h76q15 0 24 12.5t9 26.5v4q0 11 -2 15 q-11 24 -35 38q-8 4 -16 4h-54q-10 0 -17 -3q-27 -12 -39 -30l-31 14q0 5 15 18.5t25 19.5q22 13 43 13h62q22 0 40 -14q7 -5 17.5 -16.5t14.5 -18.5q9 -14 9 -36v-9q0 -33 -23 -53q23 -20 23 -53zM465 108v130l-108 -130h108zM559 74h-59v-74h-35v74h-151v30l153 187h33 v-183h59v-34zM467 598l-301 -598h-38l302 598h37z"/>
<glyph glyph-name="questiondown" horiz-adv-x="444" unicode="¿" d="M192 598h59v-63h-59v63zM45 188q0 57 56 87l65 35q15 8 26.5 24.5t11.5 34.5v54h36v-59q0 -53 -59 -84l-65 -37q-35 -19 -35 -57l-1 -68q0 -13 4 -22q7 -15 23 -31.5t29 -24.5q9 -5 23 -5h117q14 0 20 4q16 9 37 32t30 43l35 -11q-34 -63 -73 -88q-24 -15 -46 -15h-121 q-31 0 -53 17q-9 6 -25.5 25t-21.5 27q-13 20 -13 47v72z"/>
<glyph glyph-name="Agrave" horiz-adv-x="509" unicode="À" d="M282 665l-31 -13l-106 134h42zM358 177l-121 383h-28l-120 -383h269zM452 0h-38l-46 142h-289l-47 -142h-37l192 594h73z"/>
<glyph glyph-name="Aacute" horiz-adv-x="512" unicode="Á" d="M307 787l-106 -134l-30 13l95 121h41zM361 177l-121 383h-28l-120 -383h269zM455 0h-38l-46 142h-289l-47 -142h-37l192 594h73z"/>
<glyph glyph-name="Acircumflex" horiz-adv-x="512" unicode="Â" d="M102 653l106 135h38l106 -135h-42l-83 107l-84 -107h-41zM361 177l-121 383h-28l-120 -383h269zM455 0h-38l-46 142h-289l-47 -142h-37l192 594h73z"/>
<glyph glyph-name="Atilde" horiz-adv-x="512" unicode="Ã" d="M353 677l-32 -10q-16 35 -47 35q-2 0 -4 -0.5t-4 -0.5l-69 -22q-11 -4 -24 -4q-24 0 -44.5 15t-29.5 43l32 10q15 -34 47 -34q5 0 8 1l71 22q11 4 23 4q24 0 43.5 -15.5t29.5 -43.5zM361 177l-121 383h-28l-120 -383h269zM455 0h-38l-46 142h-289l-47 -142h-37l192 594 h73z"/>
<glyph glyph-name="Adieresis" horiz-adv-x="512" unicode="Ä" d="M185 686h-54v56h54v-56zM319 686h-54v56h54v-56zM361 177l-121 383h-28l-120 -383h269zM455 0h-38l-46 142h-289l-47 -142h-37l192 594h73z"/>
<glyph glyph-name="Aring" horiz-adv-x="512" unicode="Å" d="M286 752q0 26 -17 43.5t-43 17.5t-42.5 -17.5t-16.5 -43.5q0 -28 16.5 -45t42.5 -17t43 17t17 45zM318 752q0 -39 -27 -65.5t-65 -26.5t-65 26.5t-27 65.5q0 37 27 64t65 27t65 -27t27 -64zM361 177l-121 383h-28l-120 -383h269zM455 0h-38l-46 142h-289l-47 -142h-37 l192 594h73z"/>
<glyph glyph-name="AE" horiz-adv-x="718" unicode="Æ" d="M311 558h-31l-161 -381h192v381zM605 0h-294v141h-207l-61 -141h-38l252 594h348v-36h-258v-244h238v-35h-238v-244h258v-35z"/>
<glyph glyph-name="Ccedilla" horiz-adv-x="518" unicode="Ç" d="M430 97q-35 -61 -75 -88q-24 -15 -44 -15h-141q-21 0 -45 15q-12 7 -34 30.5t-30 36.5q-11 17 -11 43v355q0 27 11 43q8 13 30.5 37t33.5 31q23 15 44 15h142q20 0 44 -15q40 -27 75 -88l-35 -11q-12 22 -32 44t-36 31q-8 4 -19 4h-137q-9 0 -17 -4q-14 -8 -33.5 -28 t-29.5 -38q-5 -8 -5 -23v-353q0 -8 5 -18q10 -18 30.5 -39t34.5 -29q8 -4 17 -4h136q10 0 18 4q15 9 34.5 31.5t31.5 42.5zM293 -53l-74 -113h-39l79 127z"/>
<glyph glyph-name="Egrave" horiz-adv-x="491" unicode="È" d="M279 666l-31 -13l-106 134h42zM378 0h-328v594h328v-35h-292v-242h273v-35h-273v-247h292v-35z"/>
<glyph glyph-name="Eacute" horiz-adv-x="491" unicode="É" d="M311 786l-106 -134l-30 13l95 121h41zM378 0h-328v594h328v-35h-292v-242h273v-35h-273v-247h292v-35z"/>
<glyph glyph-name="Ecircumflex" horiz-adv-x="491" unicode="Ê" d="M94 653l106 135h38l106 -135h-42l-83 107l-84 -107h-41zM378 0h-328v594h328v-35h-292v-242h273v-35h-273v-247h292v-35z"/>
<glyph glyph-name="Edieresis" horiz-adv-x="491" unicode="Ë" d="M185 686h-54v56h54v-56zM319 686h-54v56h54v-56zM378 0h-328v594h328v-35h-292v-242h273v-35h-273v-247h292v-35z"/>
<glyph glyph-name="Igrave" horiz-adv-x="230" unicode="Ì" d="M102 666l-31 -13l-106 134h42zM86 0h-36v594h36v-594z"/>
<glyph glyph-name="Iacute" horiz-adv-x="230" unicode="Í" d="M170 787l-106 -134l-30 13l95 121h41zM86 0h-36v594h36v-594z"/>
<glyph glyph-name="Icircumflex" horiz-adv-x="230" unicode="Î" d="M-55 653l106 135h38l106 -135h-42l-83 107l-84 -107h-41zM86 0h-36v594h36v-594z"/>
<glyph glyph-name="Idieresis" horiz-adv-x="230" unicode="Ï" d="M29 691h-54v56h54v-56zM163 691h-54v56h54v-56zM86 0h-36v594h36v-594z"/>
<glyph glyph-name="Eth" horiz-adv-x="556" unicode="Ð" d="M262 281h-156v-246h221q11 0 19 4q14 8 33.5 28.5t29.5 39.5q4 8 4 18v342q0 13 -4 20q-11 19 -30 40t-32 28q-8 4 -17 4h-224v-245h156v-33zM449 125q0 -24 -11 -43q-8 -12 -30 -36t-33 -31q-26 -15 -45 -15h-259v281h-81v33h81v280h259q22 0 45 -14q11 -7 33 -31.5 t30 -37.5q11 -19 11 -43v-343z"/>
<glyph glyph-name="Ntilde" horiz-adv-x="540" unicode="Ñ" d="M366 677l-32 -10q-16 35 -47 35q-1 0 -4 -0.5t-4 -0.5l-69 -22q-11 -4 -24 -4q-24 0 -44.5 15t-29.5 43l32 10q15 -34 47 -34q5 0 8 1l71 22q11 4 23 4q24 0 43.5 -15.5t29.5 -43.5zM428 0h-69l-263 561h-10v-561h-36v594h69l264 -560h9v560h36v-594z"/>
<glyph glyph-name="Ograve" horiz-adv-x="558" unicode="Ò" d="M320 668l-31 -13l-106 134h42zM422 120v354q0 13 -4 20q-10 18 -30.5 38.5t-34.5 28.5q-8 4 -18 4h-161q-9 0 -17 -4q-14 -8 -34.5 -28.5t-30.5 -38.5q-5 -8 -5 -20v-355q0 -12 4 -19q10 -16 32.5 -38t33.5 -29q8 -4 17 -4h161q10 0 18 4q14 8 34 28.5t31 38.5q4 7 4 20z M458 120q0 -28 -11 -44q-8 -13 -30 -36.5t-34 -30.5q-24 -15 -45 -15h-168q-20 0 -44 15q-12 8 -35 31.5t-30 35.5q-10 15 -10 44v353q0 26 10 43q8 12 30.5 36.5t34.5 32.5q22 15 44 15h168q23 0 45 -15q12 -8 34 -32t30 -36q11 -19 11 -44v-353z"/>
<glyph glyph-name="Oacute" horiz-adv-x="558" unicode="Ó" d="M334 788l-106 -134l-30 13l95 121h41zM422 120v354q0 13 -4 20q-10 18 -30.5 38.5t-34.5 28.5q-8 4 -18 4h-161q-9 0 -17 -4q-14 -8 -34.5 -28.5t-30.5 -38.5q-5 -8 -5 -20v-355q0 -12 4 -19q10 -16 32.5 -38t33.5 -29q8 -4 17 -4h161q10 0 18 4q14 8 34 28.5t31 38.5 q4 7 4 20zM458 120q0 -28 -11 -44q-8 -13 -30 -36.5t-34 -30.5q-24 -15 -45 -15h-168q-20 0 -44 15q-12 8 -35 31.5t-30 35.5q-10 15 -10 44v353q0 26 10 43q8 12 30.5 36.5t34.5 32.5q22 15 44 15h168q23 0 45 -15q12 -8 34 -32t30 -36q11 -19 11 -44v-353z"/>
<glyph glyph-name="Ocircumflex" horiz-adv-x="558" unicode="Ô" d="M131 654l106 135h38l106 -135h-42l-83 107l-84 -107h-41zM422 120v354q0 13 -4 20q-10 18 -30.5 38.5t-34.5 28.5q-8 4 -18 4h-161q-9 0 -17 -4q-14 -8 -34.5 -28.5t-30.5 -38.5q-5 -8 -5 -20v-355q0 -12 4 -19q10 -16 32.5 -38t33.5 -29q8 -4 17 -4h161q10 0 18 4 q14 8 34 28.5t31 38.5q4 7 4 20zM458 120q0 -28 -11 -44q-8 -13 -30 -36.5t-34 -30.5q-24 -15 -45 -15h-168q-20 0 -44 15q-12 8 -35 31.5t-30 35.5q-10 15 -10 44v353q0 26 10 43q8 12 30.5 36.5t34.5 32.5q22 15 44 15h168q23 0 45 -15q12 -8 34 -32t30 -36q11 -19 11 -44 v-353z"/>
<glyph glyph-name="Otilde" horiz-adv-x="558" unicode="Õ" d="M380 677l-32 -10q-16 35 -47 35q-1 0 -4 -0.5t-4 -0.5l-69 -22q-11 -4 -24 -4q-24 0 -44.5 15t-29.5 43l32 10q15 -34 47 -34q5 0 8 1l71 22q11 4 23 4q24 0 43.5 -15.5t29.5 -43.5zM422 120v354q0 13 -4 20q-10 18 -30.5 38.5t-34.5 28.5q-8 4 -18 4h-161q-9 0 -17 -4 q-14 -8 -34.5 -28.5t-30.5 -38.5q-5 -8 -5 -20v-355q0 -12 4 -19q10 -16 32.5 -38t33.5 -29q8 -4 17 -4h161q10 0 18 4q14 8 34 28.5t31 38.5q4 7 4 20zM458 120q0 -28 -11 -44q-8 -13 -30 -36.5t-34 -30.5q-24 -15 -45 -15h-168q-20 0 -44 15q-12 8 -35 31.5t-30 35.5 q-10 15 -10 44v353q0 26 10 43q8 12 30.5 36.5t34.5 32.5q22 15 44 15h168q23 0 45 -15q12 -8 34 -32t30 -36q11 -19 11 -44v-353z"/>
<glyph glyph-name="Odieresis" horiz-adv-x="558" unicode="Ö" d="M214 684h-54v56h54v-56zM348 684h-54v56h54v-56zM422 120v354q0 13 -4 20q-10 18 -30.5 38.5t-34.5 28.5q-8 4 -18 4h-161q-9 0 -17 -4q-14 -8 -34.5 -28.5t-30.5 -38.5q-5 -8 -5 -20v-355q0 -12 4 -19q10 -16 32.5 -38t33.5 -29q8 -4 17 -4h161q10 0 18 4q14 8 34 28.5 t31 38.5q4 7 4 20zM458 120q0 -28 -11 -44q-8 -13 -30 -36.5t-34 -30.5q-24 -15 -45 -15h-168q-20 0 -44 15q-12 8 -35 31.5t-30 35.5q-10 15 -10 44v353q0 26 10 43q8 12 30.5 36.5t34.5 32.5q22 15 44 15h168q23 0 45 -15q12 -8 34 -32t30 -36q11 -19 11 -44v-353z"/>
<glyph glyph-name="multiply" horiz-adv-x="518" unicode="×" d="M333 116l-111 111l-112 -112l-24 24l112 112l-111 112l24 24l111 -112l112 112l24 -24l-112 -112l111 -111z"/>
<glyph glyph-name="Oslash" horiz-adv-x="558" unicode="Ø" d="M90 101q3 -5 24 -29l244 483l-3 3l-2 1q-8 4 -18 4h-161q-9 0 -17 -4q-14 -8 -34.5 -29t-30.5 -39q-5 -8 -5 -20v-351q0 -12 3 -19zM422 120v351q0 13 -4 20q-13 21 -34 42l-245 -487q6 -5 19 -13q8 -4 17 -4h159q10 0 18 4q14 8 35 29.5t31 39.5q4 8 4 18zM420 604 l-19 -37q32 -31 46 -52q11 -19 11 -44v-351q0 -28 -11 -44q-8 -13 -30 -36.5t-34 -30.5q-24 -15 -45 -15h-168q-20 0 -44 15q-1 1 -4 3l-11 -22h-38l23 45q-28 27 -35 41q-10 17 -10 44v351q0 27 10 44q8 13 30.5 37t34.5 31q24 15 44 15h168q14 0 36 -11l9 17h37z"/>
<glyph glyph-name="Ugrave" horiz-adv-x="534" unicode="Ù" d="M303 667l-31 -13l-106 134h42zM424 119q0 -24 -11 -43q-8 -13 -30 -36.5t-34 -30.5q-24 -15 -44 -15h-143q-21 0 -45 15q-12 7 -34 30.5t-30 36.5q-11 17 -11 43v475h36v-476q0 -6 5 -19q10 -18 31 -38t36 -28q8 -4 17 -4h133q10 0 18 4q15 8 36 28.5t30 37.5q4 10 4 19 v476h36v-475z"/>
<glyph glyph-name="Uacute" horiz-adv-x="534" unicode="Ú" d="M311 788l-106 -134l-30 13l95 121h41zM424 119q0 -24 -11 -43q-8 -13 -30 -36.5t-34 -30.5q-24 -15 -44 -15h-143q-21 0 -45 15q-12 7 -34 30.5t-30 36.5q-11 17 -11 43v475h36v-476q0 -6 5 -19q10 -18 31 -38t36 -28q8 -4 17 -4h133q10 0 18 4q15 8 36 28.5t30 37.5 q4 10 4 19v476h36v-475z"/>
<glyph glyph-name="Ucircumflex" horiz-adv-x="534" unicode="Û" d="M112 653l106 135h38l106 -135h-42l-83 107l-84 -107h-41zM424 119q0 -24 -11 -43q-8 -13 -30 -36.5t-34 -30.5q-24 -15 -44 -15h-143q-21 0 -45 15q-12 7 -34 30.5t-30 36.5q-11 17 -11 43v475h36v-476q0 -6 5 -19q10 -18 31 -38t36 -28q8 -4 17 -4h133q10 0 18 4 q15 8 36 28.5t30 37.5q4 10 4 19v476h36v-475z"/>
<glyph glyph-name="Udieresis" horiz-adv-x="534" unicode="Ü" d="M196 684h-54v56h54v-56zM330 684h-54v56h54v-56zM424 119q0 -24 -11 -43q-8 -13 -30 -36.5t-34 -30.5q-24 -15 -44 -15h-143q-21 0 -45 15q-12 7 -34 30.5t-30 36.5q-11 17 -11 43v475h36v-476q0 -6 5 -19q10 -18 31 -38t36 -28q8 -4 17 -4h133q10 0 18 4q15 8 36 28.5 t30 37.5q4 10 4 19v476h36v-475z"/>
<glyph glyph-name="Yacute" horiz-adv-x="445" unicode="Ý" d="M282 787l-106 -134l-30 13l95 121h41zM398 594l-184 -329v-265h-36v265l-183 329h40l161 -292l162 292h40z"/>
<glyph glyph-name="Thorn" horiz-adv-x="511" unicode="Þ" d="M393 260v83q0 13 -4 22q-8 14 -23.5 31t-28.5 24q-11 6 -22 6h-229v-245h229q13 0 22 5q36 21 52 53q4 7 4 21zM428 259q0 -26 -13 -46q-3 -7 -20.5 -24.5t-27.5 -26.5q-20 -16 -51 -16h-230v-146h-36v594h36v-133h230q29 0 51 -17q10 -8 27.5 -26.5t20.5 -25.5 q13 -20 13 -47v-86z"/>
<glyph glyph-name="germandbls" horiz-adv-x="494" unicode="ß" d="M409 106q0 -31 -13 -50q-16 -25 -39 -43t-55 -18h-120q-29 0 -48 15l23 24q11 -6 23 -6h123q13 0 22 5q30 18 46 50q4 8 4 23v53q0 20 -14 33.5t-33 15.5l-64 4q-35 2 -56.5 26t-21.5 58v11q0 32 13 51q7 12 46 47q28 26 44 42q9 9 9 18v26q0 7 -6 19q-17 32 -53 52 q-9 5 -22 5h-47q-9 0 -19 -5q-15 -8 -35.5 -29.5t-30.5 -40.5q-4 -8 -4 -21v-420l-9 -51h-35l10 60v409q0 29 11 46q10 15 32.5 39t34.5 31q23 15 45 15h48q31 0 53 -18q29 -22 44 -46q14 -20 14 -48v-23q0 -20 -12 -35q-6 -8 -53 -51q-33 -30 -41 -47q-4 -8 -4 -21v-16 q0 -20 15 -34t34 -15l63 -5q33 -2 55.5 -26t22.5 -58v-51z"/>
<glyph glyph-name="agrave" horiz-adv-x="460" unicode="à" d="M250 522l-31 -13l-106 134h42zM329 102v109h-195q-14 0 -25 -6q-30 -18 -46 -51q-4 -8 -4 -22v-24q0 -13 4 -21q17 -34 48 -53q11 -6 26 -6h93q9 0 19 5q60 32 80 69zM373 0h-34l-8 56q-18 -24 -54 -46q-25 -15 -44 -15h-98q-32 0 -55 18q-24 18 -42 47q-13 19 -13 49v21 q0 31 13 50q17 27 42 46q23 18 55 18h194v76q0 14 -3 21q-7 15 -22.5 31.5t-28.5 24.5q-9 5 -23 5h-105q-11 0 -22 -6q-15 -8 -46 -50l-33 13q30 44 50 59q22 17 54 17h102q33 0 56 -18q26 -20 43 -47q12 -17 12 -50v-246z"/>
<glyph glyph-name="aacute" horiz-adv-x="460" unicode="á" d="M288 643l-106 -134l-30 13l95 121h41zM329 102v109h-195q-14 0 -25 -6q-30 -18 -46 -51q-4 -8 -4 -22v-24q0 -13 4 -21q17 -34 48 -53q11 -6 26 -6h93q9 0 19 5q60 32 80 69zM373 0h-34l-8 56q-18 -24 -54 -46q-25 -15 -44 -15h-98q-32 0 -55 18q-24 18 -42 47 q-13 19 -13 49v21q0 31 13 50q17 27 42 46q23 18 55 18h194v76q0 14 -3 21q-7 15 -22.5 31.5t-28.5 24.5q-9 5 -23 5h-105q-11 0 -22 -6q-15 -8 -46 -50l-33 13q30 44 50 59q22 17 54 17h102q33 0 56 -18q26 -20 43 -47q12 -17 12 -50v-246z"/>
<glyph glyph-name="acircumflex" horiz-adv-x="460" unicode="â" d="M79 509l106 135h38l106 -135h-42l-83 107l-84 -107h-41zM329 102v109h-195q-14 0 -25 -6q-30 -18 -46 -51q-4 -8 -4 -22v-24q0 -13 4 -21q17 -34 48 -53q11 -6 26 -6h93q9 0 19 5q60 32 80 69zM373 0h-34l-8 56q-18 -24 -54 -46q-25 -15 -44 -15h-98q-32 0 -55 18 q-24 18 -42 47q-13 19 -13 49v21q0 31 13 50q17 27 42 46q23 18 55 18h194v76q0 14 -3 21q-7 15 -22.5 31.5t-28.5 24.5q-9 5 -23 5h-105q-11 0 -22 -6q-15 -8 -46 -50l-33 13q30 44 50 59q22 17 54 17h102q33 0 56 -18q26 -20 43 -47q12 -17 12 -50v-246z"/>
<glyph glyph-name="atilde" horiz-adv-x="465" unicode="ã" d="M339 547l-32 -10q-16 35 -47 35q-2 0 -4 -0.5t-4 -0.5l-69 -22q-11 -4 -24 -4q-24 0 -44.5 15t-29.5 43l32 10q15 -34 47 -34q5 0 8 1l71 22q11 4 23 4q24 0 43.5 -15.5t29.5 -43.5zM329 102v109h-195q-14 0 -25 -6q-30 -18 -46 -51q-4 -8 -4 -22v-24q0 -13 4 -21 q17 -34 48 -53q11 -6 26 -6h93q9 0 19 5q60 32 80 69zM373 0h-34l-8 56q-18 -24 -54 -46q-25 -15 -44 -15h-98q-32 0 -55 18q-24 18 -42 47q-13 19 -13 49v21q0 31 13 50q17 27 42 46q23 18 55 18h194v76q0 14 -3 21q-7 15 -22.5 31.5t-28.5 24.5q-9 5 -23 5h-105 q-11 0 -22 -6q-15 -8 -46 -50l-33 13q30 44 50 59q22 17 54 17h102q33 0 56 -18q26 -20 43 -47q12 -17 12 -50v-246z"/>
<glyph glyph-name="adieresis" horiz-adv-x="460" unicode="ä" d="M162 553h-54v56h54v-56zM296 553h-54v56h54v-56zM329 102v109h-195q-14 0 -25 -6q-30 -18 -46 -51q-4 -8 -4 -22v-24q0 -13 4 -21q17 -34 48 -53q11 -6 26 -6h93q9 0 19 5q60 32 80 69zM373 0h-34l-8 56q-18 -24 -54 -46q-25 -15 -44 -15h-98q-32 0 -55 18q-24 18 -42 47 q-13 19 -13 49v21q0 31 13 50q17 27 42 46q23 18 55 18h194v76q0 14 -3 21q-7 15 -22.5 31.5t-28.5 24.5q-9 5 -23 5h-105q-11 0 -22 -6q-15 -8 -46 -50l-33 13q30 44 50 59q22 17 54 17h102q33 0 56 -18q26 -20 43 -47q12 -17 12 -50v-246z"/>
<glyph glyph-name="aring" horiz-adv-x="465" unicode="å" d="M329 102v109h-195q-14 0 -25 -6q-30 -18 -46 -51q-4 -8 -4 -22v-24q0 -13 4 -21q17 -34 48 -53q11 -6 26 -6h93q9 0 19 5q60 32 80 69zM373 0h-34l-8 56q-18 -24 -54 -46q-25 -15 -44 -15h-98q-32 0 -55 18q-24 18 -42 47q-13 19 -13 49v21q0 31 13 50q17 27 42 46 q23 18 55 18h194v76q0 14 -3 21q-7 15 -22.5 31.5t-28.5 24.5q-9 5 -23 5h-105q-11 0 -22 -6q-15 -8 -46 -50l-33 13q30 44 50 59q22 17 54 17h102q33 0 56 -18q26 -20 43 -47q12 -17 12 -50v-246zM270 586q0 25 -16 41.5t-41 16.5t-40.5 -16.5t-15.5 -41.5 q0 -26 15.5 -42.5t40.5 -16.5t41 16.5t16 42.5zM300 586q0 -36 -25.5 -61.5t-61.5 -25.5t-61.5 25t-25.5 62q0 35 25.5 60.5t61.5 25.5q35 0 61 -25.5t26 -60.5z"/>
<glyph glyph-name="ae" horiz-adv-x="742" unicode="æ" d="M320 112v97h-189q-13 0 -23 -6q-34 -20 -50 -52q-4 -8 -4 -23v-19q0 -14 4 -22q7 -15 22 -30.5t28 -23.5q5 -3 22 -5h112q14 0 23 5q34 21 52 57q3 6 3 22zM618 241v77q0 15 -3 21q-8 15 -23.5 32.5t-28.5 25.5q-9 5 -23 5h-109q-14 0 -23 -5q-13 -8 -29 -24.5t-23 -31.5 q-2 -5 -2 -18v-82h264zM652 208h-298v-98q0 -12 3 -20q19 -37 52 -57q9 -5 23 -5h113q14 0 23 5q25 14 47 51l31 -12q-22 -38 -48 -59q-23 -18 -55 -18h-112q-33 0 -56 18q-20 17 -38 41q-16 -21 -39 -41q-23 -18 -55 -18h-113q-32 0 -55 18q-25 19 -42 46q-13 20 -13 49v21 q0 29 13 49q17 27 42 46q23 18 55 18h190v81q0 13 -3 18q-8 15 -23.5 32t-28.5 24q-9 5 -23 5h-100q-13 0 -22 -5q-27 -15 -48 -51l-32 12q19 33 51 59q23 18 54 18h98q32 0 55 -18q20 -18 39 -42q17 22 41 43q18 17 53 17h110q32 0 55 -18q26 -20 43 -47q13 -19 13 -51 v-111z"/>
<glyph glyph-name="ccedilla" horiz-adv-x="452" unicode="ç" d="M253 -53l-74 -113h-39l79 127zM367 72q-27 -42 -49 -59q-23 -18 -55 -18h-112q-33 0 -56 18q-24 19 -43 48q-12 17 -12 49v210q0 32 12 49q19 29 43 48q23 18 56 18h109q32 0 55 -18q27 -22 50 -59l-34 -11q-20 34 -48 50q-9 5 -23 5h-110q-14 0 -23 -5q-32 -19 -50 -55 q-3 -6 -3 -22v-210q0 -16 3 -22q7 -14 23 -30.5t29 -24.5q9 -5 23 -5h112q14 0 23 5q25 14 47 51z"/>
<glyph glyph-name="egrave" horiz-adv-x="463" unicode="è" d="M250 522l-31 -13l-106 134h42zM339 230v89q0 17 -2 22q-7 15 -23 31.5t-29 24.5q-9 5 -23 5h-111q-13 0 -22 -5q-13 -8 -29 -24.5t-23 -31.5q-3 -6 -3 -22v-89h265zM373 197h-299v-85q0 -16 3 -22q19 -37 52 -57q9 -5 22 -5h113q14 0 24 6q21 13 48 51l32 -13 q-27 -42 -49 -59q-23 -18 -55 -18h-112q-33 0 -56 18q-24 19 -43 48q-13 19 -13 49v210q0 30 13 49q19 29 43 48q23 18 56 18h110q33 0 56 -18q24 -19 43 -48q12 -17 12 -49v-123z"/>
<glyph glyph-name="eacute" horiz-adv-x="463" unicode="é" d="M288 643l-106 -134l-30 13l95 121h41zM339 230v89q0 17 -2 22q-7 15 -23 31.5t-29 24.5q-9 5 -23 5h-111q-13 0 -22 -5q-13 -8 -29 -24.5t-23 -31.5q-3 -6 -3 -22v-89h265zM373 197h-299v-85q0 -16 3 -22q19 -37 52 -57q9 -5 22 -5h113q14 0 24 6q21 13 48 51l32 -13 q-27 -42 -49 -59q-23 -18 -55 -18h-112q-33 0 -56 18q-24 19 -43 48q-13 19 -13 49v210q0 30 13 49q19 29 43 48q23 18 56 18h110q33 0 56 -18q24 -19 43 -48q12 -17 12 -49v-123z"/>
<glyph glyph-name="ecircumflex" horiz-adv-x="463" unicode="ê" d="M79 509l106 135h38l106 -135h-42l-83 107l-84 -107h-41zM339 230v89q0 17 -2 22q-7 15 -23 31.5t-29 24.5q-9 5 -23 5h-111q-13 0 -22 -5q-13 -8 -29 -24.5t-23 -31.5q-3 -6 -3 -22v-89h265zM373 197h-299v-85q0 -16 3 -22q19 -37 52 -57q9 -5 22 -5h113q14 0 24 6 q21 13 48 51l32 -13q-27 -42 -49 -59q-23 -18 -55 -18h-112q-33 0 -56 18q-24 19 -43 48q-13 19 -13 49v210q0 30 13 49q19 29 43 48q23 18 56 18h110q33 0 56 -18q24 -19 43 -48q12 -17 12 -49v-123z"/>
<glyph glyph-name="edieresis" horiz-adv-x="463" unicode="ë" d="M162 553h-54v56h54v-56zM296 553h-54v56h54v-56zM339 230v89q0 17 -2 22q-7 15 -23 31.5t-29 24.5q-9 5 -23 5h-111q-13 0 -22 -5q-13 -8 -29 -24.5t-23 -31.5q-3 -6 -3 -22v-89h265zM373 197h-299v-85q0 -16 3 -22q19 -37 52 -57q9 -5 22 -5h113q14 0 24 6q21 13 48 51 l32 -13q-27 -42 -49 -59q-23 -18 -55 -18h-112q-33 0 -56 18q-24 19 -43 48q-13 19 -13 49v210q0 30 13 49q19 29 43 48q23 18 56 18h110q33 0 56 -18q24 -19 43 -48q12 -17 12 -49v-123z"/>
<glyph glyph-name="igrave" horiz-adv-x="206" unicode="ì" d="M88 522l-31 -13l-106 134h42zM78 0h-34v430h34v-430z"/>
<glyph glyph-name="iacute" horiz-adv-x="206" unicode="í" d="M176 643l-106 -134l-30 13l95 121h41zM78 0h-34v430h34v-430z"/>
<glyph glyph-name="icircumflex" horiz-adv-x="206" unicode="î" d="M-65 509l106 135h38l106 -135h-42l-83 107l-84 -107h-41zM78 0h-34v430h34v-430z"/>
<glyph glyph-name="idieresis" horiz-adv-x="206" unicode="ï" d="M21 553h-54v56h54v-56zM155 553h-54v56h54v-56zM78 0h-34v430h34v-430z"/>
<glyph glyph-name="eth" horiz-adv-x="467" unicode="ð" d="M74 322v-211q0 -13 4 -21q19 -37 52 -57q9 -5 23 -5h107q13 0 22 5q33 20 52 57q4 8 4 21v204q0 10 -5 18q-19 36 -69 65q-10 5 -22 5h-89q-13 0 -23 -6q-33 -19 -52 -54q-4 -8 -4 -21zM348 554l-73 -37l41 -21q56 -30 56 -85v-301q0 -27 -13 -47q-5 -8 -21 -26.5 t-25 -24.5q-22 -17 -52 -17h-109q-30 0 -52 17q-9 7 -25.5 25t-21.5 26q-13 20 -13 47v213q0 26 13 47q4 7 20.5 24.5t26.5 25.5q19 16 52 16h89q29 0 45 -12q25 -19 52 -49v32q0 39 -36 59l-65 33l-58 -30l-16 26l41 21l-121 66l16 28l141 -76l92 48z"/>
<glyph glyph-name="ntilde" horiz-adv-x="473" unicode="ñ" d="M344 547l-32 -10q-16 35 -47 35q-1 0 -4 -0.5t-4 -0.5l-69 -22q-11 -4 -24 -4q-24 0 -44.5 15t-29.5 43l32 10q15 -34 47 -34q5 0 8 1l71 22q11 4 23 4q24 0 43.5 -15.5t29.5 -43.5zM40 430h34l7 -56q13 17 55 46q21 15 44 15h82q33 0 55 -17q24 -19 43 -48 q13 -19 13 -49v-321h-34v319q0 17 -3 23q-8 14 -23.5 31t-28.5 24q-9 5 -23 5h-78q-11 0 -19 -4q-70 -39 -83 -74v-324h-34v366z"/>
<glyph glyph-name="ograve" d="M250 522l-31 -13l-106 134h42zM333 110v211q0 15 -3 22q-17 33 -52 54q-9 5 -23 5h-109q-14 0 -23 -5q-34 -20 -51 -54q-3 -6 -3 -22v-211q0 -16 3 -22q7 -14 23 -30.5t29 -24.5q9 -5 23 -5h109q14 0 23 5q33 20 51 55q3 7 3 22zM367 320v-210q0 -32 -12 -49 q-19 -29 -43 -48q-23 -18 -56 -18h-110q-33 0 -56 18q-24 19 -43 48q-12 17 -12 49v210q0 32 12 49q19 29 43 48q23 18 56 18h110q33 0 56 -18q24 -19 43 -48q12 -17 12 -49z" unicode="ò"/>
<glyph glyph-name="oacute" d="M288 643l-106 -134l-30 13l95 121h41zM333 110v211q0 15 -3 22q-17 33 -52 54q-9 5 -23 5h-109q-14 0 -23 -5q-34 -20 -51 -54q-3 -6 -3 -22v-211q0 -16 3 -22q7 -14 23 -30.5t29 -24.5q9 -5 23 -5h109q14 0 23 5q33 20 51 55q3 7 3 22zM367 320v-210q0 -32 -12 -49 q-19 -29 -43 -48q-23 -18 -56 -18h-110q-33 0 -56 18q-24 19 -43 48q-12 17 -12 49v210q0 32 12 49q19 29 43 48q23 18 56 18h110q33 0 56 -18q24 -19 43 -48q12 -17 12 -49z" unicode="ó"/>
<glyph glyph-name="ocircumflex" d="M79 509l106 135h38l106 -135h-42l-83 107l-84 -107h-41zM333 110v211q0 15 -3 22q-17 33 -52 54q-9 5 -23 5h-109q-14 0 -23 -5q-34 -20 -51 -54q-3 -6 -3 -22v-211q0 -16 3 -22q7 -14 23 -30.5t29 -24.5q9 -5 23 -5h109q14 0 23 5q33 20 51 55q3 7 3 22zM367 320v-210 q0 -32 -12 -49q-19 -29 -43 -48q-23 -18 -56 -18h-110q-33 0 -56 18q-24 19 -43 48q-12 17 -12 49v210q0 32 12 49q19 29 43 48q23 18 56 18h110q33 0 56 -18q24 -19 43 -48q12 -17 12 -49z" unicode="ô"/>
<glyph glyph-name="otilde" d="M329 547l-32 -10q-16 35 -47 35q-2 0 -4 -0.5t-4 -0.5l-69 -22q-11 -4 -24 -4q-24 0 -44.5 15t-29.5 43l32 10q15 -34 47 -34q5 0 8 1l71 22q11 4 23 4q24 0 43.5 -15.5t29.5 -43.5zM333 110v211q0 15 -3 22q-17 33 -52 54q-9 5 -23 5h-109q-14 0 -23 -5q-34 -20 -51 -54 q-3 -6 -3 -22v-211q0 -16 3 -22q7 -14 23 -30.5t29 -24.5q9 -5 23 -5h109q14 0 23 5q33 20 51 55q3 7 3 22zM367 320v-210q0 -32 -12 -49q-19 -29 -43 -48q-23 -18 -56 -18h-110q-33 0 -56 18q-24 19 -43 48q-12 17 -12 49v210q0 32 12 49q19 29 43 48q23 18 56 18h110 q33 0 56 -18q24 -19 43 -48q12 -17 12 -49z" unicode="õ"/>
<glyph glyph-name="odieresis" d="M162 553h-54v56h54v-56zM296 553h-54v56h54v-56zM333 110v211q0 15 -3 22q-17 33 -52 54q-9 5 -23 5h-109q-14 0 -23 -5q-34 -20 -51 -54q-3 -6 -3 -22v-211q0 -16 3 -22q7 -14 23 -30.5t29 -24.5q9 -5 23 -5h109q14 0 23 5q33 20 51 55q3 7 3 22zM367 320v-210 q0 -32 -12 -49q-19 -29 -43 -48q-23 -18 -56 -18h-110q-33 0 -56 18q-24 19 -43 48q-12 17 -12 49v210q0 32 12 49q19 29 43 48q23 18 56 18h110q33 0 56 -18q24 -19 43 -48q12 -17 12 -49z" unicode="ö"/>
<glyph glyph-name="divide" horiz-adv-x="432" unicode="÷" d="M345 166h-305v33h305v-33zM220 0h-61v65h61v-65zM220 299h-61v65h61v-65z"/>
<glyph glyph-name="oslash" d="M72 88q7 -15 26 -34l174 346q-6 2 -17 2h-109q-14 0 -23 -5q-34 -20 -51 -54q-3 -6 -3 -22v-211q0 -16 3 -22zM333 110v211q0 15 -3 22q-14 23 -31 38l-174 -349q7 -4 22 -4h109q14 0 23 5q33 20 51 55q3 7 3 22zM367 320v-210q0 -32 -12 -49q-19 -29 -43 -48 q-23 -18 -56 -18h-110q-17 0 -36 7l-15 -31h-39l25 50q-24 22 -34 40q-12 17 -12 49v210q0 32 12 49q19 29 43 48q23 18 56 18h110q14 0 31 -5l12 24h37l-20 -40q21 -20 39 -45q12 -17 12 -49z" unicode="ø"/>
<glyph glyph-name="ugrave" horiz-adv-x="467" unicode="ù" d="M250 522l-31 -13l-106 134h42zM339 0l-7 56q-13 -17 -55 -46q-21 -15 -44 -15h-82q-33 0 -55 17q-24 19 -43 48q-13 19 -13 49v321h34v-319q0 -17 3 -23q8 -14 23.5 -31t28.5 -24q9 -5 23 -5h78q11 0 19 4q70 39 83 74v324h34v-366l7 -64h-34z"/>
<glyph glyph-name="uacute" horiz-adv-x="467" unicode="ú" d="M288 643l-106 -134l-30 13l95 121h41zM339 0l-7 56q-13 -17 -55 -46q-21 -15 -44 -15h-82q-33 0 -55 17q-24 19 -43 48q-13 19 -13 49v321h34v-319q0 -17 3 -23q8 -14 23.5 -31t28.5 -24q9 -5 23 -5h78q11 0 19 4q70 39 83 74v324h34v-366l7 -64h-34z"/>
<glyph glyph-name="ucircumflex" horiz-adv-x="467" unicode="û" d="M84 509l106 135h38l106 -135h-42l-83 107l-84 -107h-41zM339 0l-7 56q-13 -17 -55 -46q-21 -15 -44 -15h-82q-33 0 -55 17q-24 19 -43 48q-13 19 -13 49v321h34v-319q0 -17 3 -23q8 -14 23.5 -31t28.5 -24q9 -5 23 -5h78q11 0 19 4q70 39 83 74v324h34v-366l7 -64h-34z "/>
<glyph glyph-name="udieresis" horiz-adv-x="467" unicode="ü" d="M160 553h-54v56h54v-56zM294 553h-54v56h54v-56zM339 0l-7 56q-13 -17 -55 -46q-21 -15 -44 -15h-82q-33 0 -55 17q-24 19 -43 48q-13 19 -13 49v321h34v-319q0 -17 3 -23q8 -14 23.5 -31t28.5 -24q9 -5 23 -5h78q11 0 19 4q70 39 83 74v324h34v-366l7 -64h-34z"/>
<glyph glyph-name="yacute" horiz-adv-x="400" unicode="ý" d="M259 643l-106 -134l-30 13l95 121h41zM338 430l-185 -594h-38l55 164h-26l-135 430h37l121 -395h14l121 395h36z"/>
<glyph glyph-name="thorn" horiz-adv-x="468" unicode="þ" d="M344 111v208q0 15 -4 23q-19 36 -51 54q-10 6 -23 6h-84q-11 0 -19 -4q-20 -10 -47 -32.5t-36 -42.5v-217q13 -35 83 -74q8 -4 19 -4h85q14 0 23 5q30 17 50 55q4 8 4 23zM378 321v-213q0 -29 -13 -48q-25 -34 -43 -48q-22 -17 -55 -17h-88q-23 0 -44 15q-46 32 -55 48 v-222h-34l-1 758h34l1 -213l1 -9q24 27 52 47q22 16 46 16h88q32 0 55 -18q26 -20 43 -47q13 -19 13 -49z"/>
<glyph glyph-name="ydieresis" horiz-adv-x="400" unicode="ÿ" d="M133 553h-54v56h54v-56zM267 553h-54v56h54v-56zM338 430l-185 -594h-38l55 164h-26l-135 430h37l121 -395h14l121 395h36z"/>
<glyph glyph-name="Amacron" horiz-adv-x="512" unicode="Ā" d="M304 702h-157v33h157v-33zM361 177l-121 383h-28l-120 -383h269zM455 0h-38l-46 142h-289l-47 -142h-37l192 594h73z"/>
<glyph glyph-name="amacron" horiz-adv-x="465" unicode="ā" d="M329 102v109h-195q-14 0 -25 -6q-30 -18 -46 -51q-4 -8 -4 -22v-24q0 -13 4 -21q17 -34 48 -53q11 -6 26 -6h93q9 0 19 5q60 32 80 69zM373 0h-34l-8 56q-18 -24 -54 -46q-25 -15 -44 -15h-98q-32 0 -55 18q-24 18 -42 47q-13 19 -13 49v21q0 31 13 50q17 27 42 46 q23 18 55 18h194v76q0 14 -3 21q-7 15 -22.5 31.5t-28.5 24.5q-9 5 -23 5h-105q-11 0 -22 -6q-15 -8 -46 -50l-33 13q30 44 50 59q22 17 54 17h102q33 0 56 -18q26 -20 43 -47q12 -17 12 -50v-246zM285 562h-157v33h157v-33z"/>
<glyph glyph-name="Abreve" horiz-adv-x="512" unicode="Ă" d="M286 760h32q0 -39 -27 -65.5t-65 -26.5t-65 26.5t-27 65.5l34 -1q0 -28 16 -44.5t42 -16.5t43 17t17 45zM361 177l-121 383h-28l-120 -383h269zM455 0h-38l-46 142h-289l-47 -142h-37l192 594h73z"/>
<glyph glyph-name="abreve" horiz-adv-x="465" unicode="ă" d="M266 616h32q0 -39 -27 -65.5t-65 -26.5t-65 26.5t-27 65.5l34 -1q0 -28 16 -44.5t42 -16.5t43 17t17 45zM329 102v109h-195q-14 0 -25 -6q-30 -18 -46 -51q-4 -8 -4 -22v-24q0 -13 4 -21q17 -34 48 -53q11 -6 26 -6h93q9 0 19 5q60 32 80 69zM373 0h-34l-8 56 q-18 -24 -54 -46q-25 -15 -44 -15h-98q-32 0 -55 18q-24 18 -42 47q-13 19 -13 49v21q0 31 13 50q17 27 42 46q23 18 55 18h194v76q0 14 -3 21q-7 15 -22.5 31.5t-28.5 24.5q-9 5 -23 5h-105q-11 0 -22 -6q-15 -8 -46 -50l-33 13q30 44 50 59q22 17 54 17h102q33 0 56 -18 q26 -20 43 -47q12 -17 12 -50v-246z"/>
<glyph glyph-name="Aogonek" horiz-adv-x="511" unicode="Ą" d="M447 -166l-74 113l34 14l79 -127h-39zM361 177l-121 383h-28l-120 -383h269zM455 0h-38l-46 142h-289l-47 -142h-37l192 594h73z"/>
<glyph glyph-name="aogonek" horiz-adv-x="465" unicode="ą" d="M371 -166l-74 113l34 14l79 -127h-39zM329 102v109h-195q-14 0 -25 -6q-30 -18 -46 -51q-4 -8 -4 -22v-24q0 -13 4 -21q17 -34 48 -53q11 -6 26 -6h93q9 0 19 5q60 32 80 69zM373 0h-34l-8 56q-18 -24 -54 -46q-25 -15 -44 -15h-98q-32 0 -55 18q-24 18 -42 47 q-13 19 -13 49v21q0 31 13 50q17 27 42 46q23 18 55 18h194v76q0 14 -3 21q-7 15 -22.5 31.5t-28.5 24.5q-9 5 -23 5h-105q-11 0 -22 -6q-15 -8 -46 -50l-33 13q30 44 50 59q22 17 54 17h102q33 0 56 -18q26 -20 43 -47q12 -17 12 -50v-246z"/>
<glyph glyph-name="Cacute" horiz-adv-x="517" unicode="Ć" d="M328 789l-106 -134l-30 13l95 121h41zM430 97q-35 -61 -75 -88q-24 -15 -44 -15h-141q-21 0 -45 15q-12 7 -34 30.5t-30 36.5q-11 17 -11 43v355q0 27 11 43q8 13 30.5 37t33.5 31q23 15 44 15h142q20 0 44 -15q40 -27 75 -88l-35 -11q-12 22 -32 44t-36 31q-8 4 -19 4 h-137q-9 0 -17 -4q-14 -8 -33.5 -28t-29.5 -38q-5 -8 -5 -23v-353q0 -8 5 -18q10 -18 30.5 -39t34.5 -29q8 -4 17 -4h136q10 0 18 4q15 9 34.5 31.5t31.5 42.5z"/>
<glyph glyph-name="cacute" d="M291 643l-106 -134l-30 13l95 121h41zM367 72q-27 -42 -49 -59q-23 -18 -55 -18h-112q-33 0 -56 18q-24 19 -43 48q-12 17 -12 49v210q0 32 12 49q19 29 43 48q23 18 56 18h109q32 0 55 -18q27 -22 50 -59l-34 -11q-20 34 -48 50q-9 5 -23 5h-110q-14 0 -23 -5 q-32 -19 -50 -55q-3 -6 -3 -22v-210q0 -16 3 -22q7 -14 23 -30.5t29 -24.5q9 -5 23 -5h112q14 0 23 5q25 14 47 51z" unicode="ć"/>
<glyph glyph-name="Ccircumflex" horiz-adv-x="517" unicode="Ĉ" d="M120 652l106 135h38l106 -135h-42l-83 107l-84 -107h-41zM430 97q-35 -61 -75 -88q-24 -15 -44 -15h-141q-21 0 -45 15q-12 7 -34 30.5t-30 36.5q-11 17 -11 43v355q0 27 11 43q8 13 30.5 37t33.5 31q23 15 44 15h142q20 0 44 -15q40 -27 75 -88l-35 -11q-12 22 -32 44 t-36 31q-8 4 -19 4h-137q-9 0 -17 -4q-14 -8 -33.5 -28t-29.5 -38q-5 -8 -5 -23v-353q0 -8 5 -18q10 -18 30.5 -39t34.5 -29q8 -4 17 -4h136q10 0 18 4q15 9 34.5 31.5t31.5 42.5z"/>
<glyph glyph-name="ccircumflex" d="M79 509l106 135h38l106 -135h-42l-83 107l-84 -107h-41zM367 72q-27 -42 -49 -59q-23 -18 -55 -18h-112q-33 0 -56 18q-24 19 -43 48q-12 17 -12 49v210q0 32 12 49q19 29 43 48q23 18 56 18h109q32 0 55 -18q27 -22 50 -59l-34 -11q-20 34 -48 50q-9 5 -23 5h-110 q-14 0 -23 -5q-32 -19 -50 -55q-3 -6 -3 -22v-210q0 -16 3 -22q7 -14 23 -30.5t29 -24.5q9 -5 23 -5h112q14 0 23 5q25 14 47 51z" unicode="ĉ"/>
<glyph glyph-name="Cdotaccent" horiz-adv-x="517" unicode="Ċ" d="M265 690h-49v52h49v-52zM430 97q-35 -61 -75 -88q-24 -15 -44 -15h-141q-21 0 -45 15q-12 7 -34 30.5t-30 36.5q-11 17 -11 43v355q0 27 11 43q8 13 30.5 37t33.5 31q23 15 44 15h142q20 0 44 -15q40 -27 75 -88l-35 -11q-12 22 -32 44t-36 31q-8 4 -19 4h-137 q-9 0 -17 -4q-14 -8 -33.5 -28t-29.5 -38q-5 -8 -5 -23v-353q0 -8 5 -18q10 -18 30.5 -39t34.5 -29q8 -4 17 -4h136q10 0 18 4q15 9 34.5 31.5t31.5 42.5z"/>
<glyph glyph-name="cdotaccent" d="M230 552h-49v52h49v-52zM367 72q-27 -42 -49 -59q-23 -18 -55 -18h-112q-33 0 -56 18q-24 19 -43 48q-12 17 -12 49v210q0 32 12 49q19 29 43 48q23 18 56 18h109q32 0 55 -18q27 -22 50 -59l-34 -11q-20 34 -48 50q-9 5 -23 5h-110q-14 0 -23 -5q-32 -19 -50 -55 q-3 -6 -3 -22v-210q0 -16 3 -22q7 -14 23 -30.5t29 -24.5q9 -5 23 -5h112q14 0 23 5q25 14 47 51z" unicode="ċ"/>
<glyph glyph-name="Ccaron" horiz-adv-x="517" unicode="Č" d="M372 787l-106 -135h-38l-106 135h42l83 -107l84 107h41zM430 97q-35 -61 -75 -88q-24 -15 -44 -15h-141q-21 0 -45 15q-12 7 -34 30.5t-30 36.5q-11 17 -11 43v355q0 27 11 43q8 13 30.5 37t33.5 31q23 15 44 15h142q20 0 44 -15q40 -27 75 -88l-35 -11q-12 22 -32 44 t-36 31q-8 4 -19 4h-137q-9 0 -17 -4q-14 -8 -33.5 -28t-29.5 -38q-5 -8 -5 -23v-353q0 -8 5 -18q10 -18 30.5 -39t34.5 -29q8 -4 17 -4h136q10 0 18 4q15 9 34.5 31.5t31.5 42.5z"/>
<glyph glyph-name="ccaron" d="M335 644l-106 -135h-38l-106 135h42l83 -107l84 107h41zM367 72q-27 -42 -49 -59q-23 -18 -55 -18h-112q-33 0 -56 18q-24 19 -43 48q-12 17 -12 49v210q0 32 12 49q19 29 43 48q23 18 56 18h109q32 0 55 -18q27 -22 50 -59l-34 -11q-20 34 -48 50q-9 5 -23 5h-110 q-14 0 -23 -5q-32 -19 -50 -55q-3 -6 -3 -22v-210q0 -16 3 -22q7 -14 23 -30.5t29 -24.5q9 -5 23 -5h112q14 0 23 5q25 14 47 51z" unicode="č"/>
<glyph glyph-name="Dcaron" horiz-adv-x="536" unicode="Ď" d="M353 788l-106 -135h-38l-106 135h42l83 -107l84 107h41zM393 125v342q0 13 -4 20q-11 19 -30 40t-32 28q-8 4 -18 4h-223v-524h221q10 0 18 4q14 8 34 29t30 39q4 8 4 18zM429 125q0 -24 -11 -43q-8 -13 -30 -36.5t-34 -30.5q-24 -15 -44 -15h-260v594h260q23 0 44 -14 q12 -7 34 -31.5t30 -37.5q11 -19 11 -43v-343z"/>
<glyph glyph-name="dcaron" horiz-adv-x="504" unicode="ď" d="M539 616l-54 -151h-40l60 165zM74 319v-208q0 -15 4 -23q19 -36 51 -54q11 -6 23 -6h84q11 0 19 4q20 10 47 32.5t36 42.5v217q-13 35 -83 74q-8 4 -19 4h-85q-14 0 -23 -5q-30 -17 -50 -55q-4 -8 -4 -23zM40 109v213q0 29 13 48q25 34 43 48q22 17 55 17h88q24 0 45 -15 q45 -31 54 -48v222h34v-527l8 -67h-34l-7 57q-27 -30 -54 -47q-25 -15 -46 -15h-88q-32 0 -55 18q-26 20 -43 47q-13 19 -13 49z"/>
<glyph glyph-name="Dcroat" horiz-adv-x="556" unicode="Đ" d="M262 281h-156v-246h221q11 0 19 4q14 8 33.5 28.5t29.5 39.5q4 8 4 18v342q0 13 -4 20q-11 19 -30 40t-32 28q-8 4 -17 4h-224v-245h156v-33zM449 125q0 -24 -11 -43q-8 -12 -30 -36t-33 -31q-26 -15 -45 -15h-260v281h-80v33h80v280h260q22 0 45 -14q11 -7 33 -31.5 t30 -37.5q11 -19 11 -43v-343z"/>
<glyph glyph-name="dcroat" horiz-adv-x="473" unicode="đ" d="M74 319v-208q0 -15 4 -23q19 -36 51 -54q11 -6 23 -6h84q11 0 19 4q20 11 47 32.5t36 41.5v217q-14 36 -83 75q-8 4 -19 4h-85q-14 0 -23 -5q-30 -17 -50 -55q-4 -8 -4 -23zM429 502h-57v-439l5 -63h-34l-6 58q-24 -27 -52 -47q-22 -16 -46 -16h-88q-32 0 -55 18 q-26 20 -43 47q-13 19 -13 49v213q0 29 13 48q25 34 43 48q22 17 55 17h88q23 0 44 -15q46 -32 55 -48v130h-147v33h147v59h34v-59h57v-33z"/>
<glyph glyph-name="Emacron" horiz-adv-x="491" unicode="Ē" d="M297 702h-157v33h157v-33zM378 0h-328v594h328v-35h-292v-242h273v-35h-273v-247h292v-35z"/>
<glyph glyph-name="emacron" horiz-adv-x="463" unicode="ē" d="M339 230v89q0 17 -2 22q-7 15 -23 31.5t-29 24.5q-9 5 -23 5h-111q-13 0 -22 -5q-13 -8 -29 -24.5t-23 -31.5q-3 -6 -3 -22v-89h265zM373 197h-299v-85q0 -16 3 -22q19 -37 52 -57q9 -5 22 -5h113q14 0 24 6q21 13 48 51l32 -13q-27 -42 -49 -59q-23 -18 -55 -18h-112 q-33 0 -56 18q-24 19 -43 48q-13 19 -13 49v210q0 30 13 49q19 29 43 48q23 18 56 18h110q33 0 56 -18q24 -19 43 -48q12 -17 12 -49v-123zM286 562h-157v33h157v-33z"/>
<glyph glyph-name="Ebreve" horiz-adv-x="491" unicode="Ĕ" d="M272 760h32q0 -39 -27 -65.5t-65 -26.5t-65 26.5t-27 65.5l34 -1q0 -28 16 -44.5t42 -16.5t43 17t17 45zM378 0h-328v594h328v-35h-292v-242h273v-35h-273v-247h292v-35z"/>
<glyph glyph-name="ebreve" horiz-adv-x="463" unicode="ĕ" d="M266 616h32q0 -39 -27 -65.5t-65 -26.5t-65 26.5t-27 65.5l34 -1q0 -28 16 -44.5t42 -16.5t43 17t17 45zM339 230v89q0 17 -2 22q-7 15 -23 31.5t-29 24.5q-9 5 -23 5h-111q-13 0 -22 -5q-13 -8 -29 -24.5t-23 -31.5q-3 -6 -3 -22v-89h265zM373 197h-299v-85q0 -16 3 -22 q19 -37 52 -57q9 -5 22 -5h113q14 0 24 6q21 13 48 51l32 -13q-27 -42 -49 -59q-23 -18 -55 -18h-112q-33 0 -56 18q-24 19 -43 48q-13 19 -13 49v210q0 30 13 49q19 29 43 48q23 18 56 18h110q33 0 56 -18q24 -19 43 -48q12 -17 12 -49v-123z"/>
<glyph glyph-name="Edotaccent" horiz-adv-x="491" unicode="Ė" d="M244 690h-49v52h49v-52zM378 0h-328v594h328v-35h-292v-242h273v-35h-273v-247h292v-35z"/>
<glyph glyph-name="edotaccent" horiz-adv-x="463" unicode="ė" d="M230 552h-49v52h49v-52zM339 230v89q0 17 -2 22q-7 15 -23 31.5t-29 24.5q-9 5 -23 5h-111q-13 0 -22 -5q-13 -8 -29 -24.5t-23 -31.5q-3 -6 -3 -22v-89h265zM373 197h-299v-85q0 -16 3 -22q19 -37 52 -57q9 -5 22 -5h113q14 0 24 6q21 13 48 51l32 -13q-27 -42 -49 -59 q-23 -18 -55 -18h-112q-33 0 -56 18q-24 19 -43 48q-13 19 -13 49v210q0 30 13 49q19 29 43 48q23 18 56 18h110q33 0 56 -18q24 -19 43 -48q12 -17 12 -49v-123z"/>
<glyph glyph-name="Eogonek" horiz-adv-x="491" unicode="Ę" d="M321 -166l-74 113l34 14l79 -127h-39zM378 0h-328v594h328v-35h-292v-242h273v-35h-273v-247h292v-35z"/>
<glyph glyph-name="eogonek" horiz-adv-x="463" unicode="ę" d="M221 -166l-74 113l34 14l79 -127h-39zM339 230v89q0 17 -2 22q-7 15 -23 31.5t-29 24.5q-9 5 -23 5h-111q-13 0 -22 -5q-13 -8 -29 -24.5t-23 -31.5q-3 -6 -3 -22v-89h265zM373 197h-299v-85q0 -16 3 -22q19 -37 52 -57q9 -5 22 -5h113q14 0 24 6q21 13 48 51l32 -13 q-27 -42 -49 -59q-23 -18 -55 -18h-112q-33 0 -56 18q-24 19 -43 48q-13 19 -13 49v210q0 30 13 49q19 29 43 48q23 18 56 18h110q33 0 56 -18q24 -19 43 -48q12 -17 12 -49v-123z"/>
<glyph glyph-name="Ecaron" horiz-adv-x="491" unicode="Ě" d="M349 788l-106 -135h-38l-106 135h42l83 -107l84 107h41zM378 0h-328v594h328v-35h-292v-242h273v-35h-273v-247h292v-35z"/>
<glyph glyph-name="ecaron" horiz-adv-x="463" unicode="ě" d="M335 644l-106 -135h-38l-106 135h42l83 -107l84 107h41zM339 230v89q0 17 -2 22q-7 15 -23 31.5t-29 24.5q-9 5 -23 5h-111q-13 0 -22 -5q-13 -8 -29 -24.5t-23 -31.5q-3 -6 -3 -22v-89h265zM373 197h-299v-85q0 -16 3 -22q19 -37 52 -57q9 -5 22 -5h113q14 0 24 6 q21 13 48 51l32 -13q-27 -42 -49 -59q-23 -18 -55 -18h-112q-33 0 -56 18q-24 19 -43 48q-13 19 -13 49v210q0 30 13 49q19 29 43 48q23 18 56 18h110q33 0 56 -18q24 -19 43 -48q12 -17 12 -49v-123z"/>
<glyph glyph-name="Gcircumflex" horiz-adv-x="571" unicode="Ĝ" d="M135 652l106 135h38l106 -135h-42l-83 107l-84 -107h-41zM466 0h-33l-7 60q-24 -29 -50 -48q-20 -15 -44 -15h-162q-21 0 -45 15q-12 7 -34 30.5t-30 36.5q-11 17 -11 43v351q0 28 11 44q7 12 30.5 36t35.5 32q22 15 43 15h163q23 0 45 -15q38 -27 74 -88l-36 -11 q-11 21 -31.5 43.5t-35.5 31.5q-8 4 -19 4h-156q-9 0 -17 -4q-14 -8 -36 -29.5t-32 -39.5q-3 -5 -3 -20v-349q0 -12 3 -18q10 -18 32 -39.5t36 -29.5q8 -4 18 -4h154q10 0 18 4q15 9 36 28.5t31 37.5q4 8 4 19v161h-146v35h182l1 -224q5 -48 11 -93z"/>
<glyph glyph-name="gcircumflex" horiz-adv-x="480" unicode="ĝ" d="M86 509l106 135h38l106 -135h-42l-83 107l-84 -107h-41zM344 105v219l-4 7q-12 17 -36.5 37.5t-40.5 29.5q-8 4 -20 4h-92q-14 0 -23 -5q-33 -20 -51 -55q-3 -6 -3 -23v-209q0 -17 3 -23q17 -34 51 -54q9 -5 23 -5h93q12 0 20 4q16 9 40 29t36 37zM385 430l-7 -64v-421 q0 -32 -12 -49q-17 -27 -43 -47q-23 -18 -56 -18h-112q-32 0 -55 18t-49 59l33 12q28 -40 46 -50q10 -6 22 -6h117q13 0 23 6q32 19 49 53q3 7 3 23v113q-20 -23 -51 -48q-22 -16 -46 -16h-96q-34 0 -56 17q-24 19 -43 48q-12 17 -12 48v213q0 32 12 49q17 26 45 48 q22 17 54 17h95q22 0 46 -17q43 -35 51 -46l8 58h34z"/>
<glyph glyph-name="Gbreve" horiz-adv-x="571" unicode="Ğ" d="M306 760h32q0 -39 -27 -65.5t-65 -26.5t-65 26.5t-27 65.5l34 -1q0 -28 16 -44.5t42 -16.5t43 17t17 45zM466 0h-33l-7 60q-24 -29 -50 -48q-20 -15 -44 -15h-162q-21 0 -45 15q-12 7 -34 30.5t-30 36.5q-11 17 -11 43v351q0 28 11 44q7 12 30.5 36t35.5 32q22 15 43 15 h163q23 0 45 -15q38 -27 74 -88l-36 -11q-11 21 -31.5 43.5t-35.5 31.5q-8 4 -19 4h-156q-9 0 -17 -4q-14 -8 -36 -29.5t-32 -39.5q-3 -5 -3 -20v-349q0 -12 3 -18q10 -18 32 -39.5t36 -29.5q8 -4 18 -4h154q10 0 18 4q15 9 36 28.5t31 37.5q4 8 4 19v161h-146v35h182 l1 -224q5 -48 11 -93z"/>
<glyph glyph-name="gbreve" horiz-adv-x="480" unicode="ğ" d="M270 616h32q0 -39 -27 -65.5t-65 -26.5t-65 26.5t-27 65.5l34 -1q0 -28 16 -44.5t42 -16.5t43 17t17 45zM344 105v219l-4 7q-12 17 -36.5 37.5t-40.5 29.5q-8 4 -20 4h-92q-14 0 -23 -5q-33 -20 -51 -55q-3 -6 -3 -23v-209q0 -17 3 -23q17 -34 51 -54q9 -5 23 -5h93 q12 0 20 4q16 9 40 29t36 37zM385 430l-7 -64v-421q0 -32 -12 -49q-17 -27 -43 -47q-23 -18 -56 -18h-112q-32 0 -55 18t-49 59l33 12q28 -40 46 -50q10 -6 22 -6h117q13 0 23 6q32 19 49 53q3 7 3 23v113q-20 -23 -51 -48q-22 -16 -46 -16h-96q-34 0 -56 17q-24 19 -43 48 q-12 17 -12 48v213q0 32 12 49q17 26 45 48q22 17 54 17h95q22 0 46 -17q43 -35 51 -46l8 58h34z"/>
<glyph glyph-name="Gdotaccent" horiz-adv-x="571" unicode="Ġ" d="M288 690h-49v52h49v-52zM466 0h-33l-7 60q-24 -29 -50 -48q-20 -15 -44 -15h-162q-21 0 -45 15q-12 7 -34 30.5t-30 36.5q-11 17 -11 43v351q0 28 11 44q7 12 30.5 36t35.5 32q22 15 43 15h163q23 0 45 -15q38 -27 74 -88l-36 -11q-11 21 -31.5 43.5t-35.5 31.5 q-8 4 -19 4h-156q-9 0 -17 -4q-14 -8 -36 -29.5t-32 -39.5q-3 -5 -3 -20v-349q0 -12 3 -18q10 -18 32 -39.5t36 -29.5q8 -4 18 -4h154q10 0 18 4q15 9 36 28.5t31 37.5q4 8 4 19v161h-146v35h182l1 -224q5 -48 11 -93z"/>
<glyph glyph-name="gdotaccent" horiz-adv-x="480" unicode="ġ" d="M241 552h-49v52h49v-52zM344 105v219l-4 7q-12 17 -36.5 37.5t-40.5 29.5q-8 4 -20 4h-92q-14 0 -23 -5q-33 -20 -51 -55q-3 -6 -3 -23v-209q0 -17 3 -23q17 -34 51 -54q9 -5 23 -5h93q12 0 20 4q16 9 40 29t36 37zM385 430l-7 -64v-421q0 -32 -12 -49q-17 -27 -43 -47 q-23 -18 -56 -18h-112q-32 0 -55 18t-49 59l33 12q28 -40 46 -50q10 -6 22 -6h117q13 0 23 6q32 19 49 53q3 7 3 23v113q-20 -23 -51 -48q-22 -16 -46 -16h-96q-34 0 -56 17q-24 19 -43 48q-12 17 -12 48v213q0 32 12 49q17 26 45 48q22 17 54 17h95q22 0 46 -17 q43 -35 51 -46l8 58h34z"/>
<glyph glyph-name="Gcommaaccent" horiz-adv-x="571" unicode="Ģ" d="M322 -53l-74 -113h-39l79 127zM466 0h-33l-7 60q-24 -29 -50 -48q-20 -15 -44 -15h-162q-21 0 -45 15q-12 7 -34 30.5t-30 36.5q-11 17 -11 43v351q0 28 11 44q7 12 30.5 36t35.5 32q22 15 43 15h163q23 0 45 -15q38 -27 74 -88l-36 -11q-11 21 -31.5 43.5t-35.5 31.5 q-8 4 -19 4h-156q-9 0 -17 -4q-14 -8 -36 -29.5t-32 -39.5q-3 -5 -3 -20v-349q0 -12 3 -18q10 -18 32 -39.5t36 -29.5q8 -4 18 -4h154q10 0 18 4q15 9 36 28.5t31 37.5q4 8 4 19v161h-146v35h182l1 -224q5 -48 11 -93z"/>
<glyph glyph-name="gcommaaccent" horiz-adv-x="480" unicode="ģ" d="M305 643l-106 -134l-30 13l95 121h41zM344 105v219l-4 7q-12 17 -36.5 37.5t-40.5 29.5q-8 4 -20 4h-92q-14 0 -23 -5q-33 -20 -51 -55q-3 -6 -3 -23v-209q0 -17 3 -23q17 -34 51 -54q9 -5 23 -5h93q12 0 20 4q16 9 40 29t36 37zM385 430l-7 -64v-421q0 -32 -12 -49 q-17 -27 -43 -47q-23 -18 -56 -18h-112q-32 0 -55 18t-49 59l33 12q28 -40 46 -50q10 -6 22 -6h117q13 0 23 6q32 19 49 53q3 7 3 23v113q-20 -23 -51 -48q-22 -16 -46 -16h-96q-34 0 -56 17q-24 19 -43 48q-12 17 -12 48v213q0 32 12 49q17 26 45 48q22 17 54 17h95 q22 0 46 -17q43 -35 51 -46l8 58h34z"/>
<glyph glyph-name="Hcircumflex" horiz-adv-x="545" unicode="Ĥ" d="M121 653l106 135h38l106 -135h-42l-83 107l-84 -107h-41zM433 0h-36v282h-311v-282h-36v594h36v-277h311v277h36v-594z"/>
<glyph glyph-name="hcircumflex" horiz-adv-x="469" unicode="ĥ" d="M89 653l106 135h38l106 -135h-42l-83 107l-84 -107h-41zM257 402h-78q-11 0 -19 -4q-70 -39 -83 -74v-324h-34v594h34v-222q9 16 55 48q21 15 44 15h82q33 0 55 -17q24 -19 43 -48q13 -19 13 -49v-321h-34v319q0 17 -3 23q-8 14 -23.5 31t-28.5 24q-9 5 -23 5z"/>
<glyph glyph-name="Hbar" horiz-adv-x="545" unicode="Ħ" d="M86 314h311v189h-311v-189zM433 0h-36v279h-311v-279h-36v503h-63v33h63v58h36v-58h311v58h36v-58h61v-33h-61v-503z"/>
<glyph glyph-name="hbar" horiz-adv-x="469" unicode="ħ" d="M225 503h-148v-130q7 13 54 48q21 15 45 15h81q33 0 55 -17q23 -16 43 -48q13 -17 13 -49v-322h-34v320q0 17 -2 23q-8 14 -23.5 31t-28.5 24q-9 5 -24 5h-77q-12 0 -20 -4q-70 -39 -82 -74v-325h-34v503h-56v33h56v59h34v-59h148v-33z"/>
<glyph glyph-name="Itilde" horiz-adv-x="198" unicode="Ĩ" d="M195 677l-32 -10q-16 35 -47 35q-2 0 -4 -0.5t-4 -0.5l-69 -22q-11 -4 -24 -4q-24 0 -44.5 15t-29.5 43l32 10q15 -34 47 -34q5 0 8 1l71 22q11 4 23 4q24 0 43.5 -15.5t29.5 -43.5zM86 0h-36v594h36v-594z"/>
<glyph glyph-name="itilde" horiz-adv-x="179" unicode="ĩ" d="M188 547l-32 -10q-16 35 -47 35q-1 0 -4 -0.5t-4 -0.5l-69 -22q-11 -4 -24 -4q-24 0 -44.5 15t-29.5 43l32 10q15 -34 47 -34q5 0 8 1l71 22q11 4 23 4q24 0 43.5 -15.5t29.5 -43.5zM78 0h-34v430h34v-430z"/>
<glyph glyph-name="Imacron" horiz-adv-x="198" unicode="Ī" d="M146 702h-157v33h157v-33zM86 0h-36v594h36v-594z"/>
<glyph glyph-name="imacron" horiz-adv-x="179" unicode="ī" d="M141 562h-157v33h157v-33zM78 0h-34v430h34v-430z"/>
<glyph glyph-name="Ibreve" horiz-adv-x="198" unicode="Ĭ" d="M127 760h32q0 -39 -27 -65.5t-65 -26.5t-65 26.5t-27 65.5l34 -1q0 -28 16 -44.5t42 -16.5t43 17t17 45zM86 0h-36v594h36v-594z"/>
<glyph glyph-name="ibreve" horiz-adv-x="179" unicode="ĭ" d="M123 616h32q0 -39 -27 -65.5t-65 -26.5t-65 26.5t-27 65.5l34 -1q0 -28 16 -44.5t42 -16.5t43 17t17 45zM78 0h-34v430h34v-430z"/>
<glyph glyph-name="Iogonek" horiz-adv-x="198" unicode="Į" d="M106 -166l-74 113l34 14l79 -127h-39zM86 0h-36v594h36v-594z"/>
<glyph glyph-name="iogonek" horiz-adv-x="191" unicode="į" d="M101 -166l-74 113l34 14l79 -127h-39zM93 553h-54v56h54v-56zM83 0h-34v430h34v-430z"/>
<glyph glyph-name="Idotaccent" horiz-adv-x="198" unicode="İ" d="M92 690h-49v52h49v-52zM86 0h-36v594h36v-594z"/>
<glyph glyph-name="dotlessi" horiz-adv-x="179" unicode="ı" d="M78 0h-34v430h34v-430z"/>
<glyph glyph-name="IJ" horiz-adv-x="622" unicode="Ĳ" d="M520 121q0 -26 -12 -44q-8 -13 -30 -36.5t-33 -30.5q-24 -15 -45 -15h-77q-21 0 -45 15q-32 20 -74 88l35 10q39 -62 67 -74q8 -4 20 -4h72q10 0 17 4q14 8 34 29t30 39q5 12 5 18v474h36v-473zM86 0h-36v594h36v-594z"/>
<glyph glyph-name="ij" horiz-adv-x="388" unicode="ĳ" d="M290 553h-54v56h54v-56zM280 -57q0 -33 -11 -49q-17 -27 -43 -47q-20 -16 -55 -16h-53v33h52q18 0 24 4q29 16 49 54q3 6 3 23v485h34v-487zM93 553h-54v56h54v-56zM83 0h-34v430h34v-430z"/>
<glyph glyph-name="Jcircumflex" horiz-adv-x="428" unicode="Ĵ" d="M184 653l106 135h38l106 -135h-42l-83 107l-84 -107h-41zM326 121q0 -26 -12 -44q-8 -13 -30 -36.5t-33 -30.5q-24 -15 -45 -15h-77q-21 0 -45 15q-32 20 -74 88l35 10q39 -62 67 -74q8 -4 20 -4h72q10 0 17 4q14 8 34 29t30 39q5 13 5 18v474h36v-473z"/>
<glyph glyph-name="jcircumflex" horiz-adv-x="200" unicode="ĵ" d="M-48 509l106 135h38l106 -135h-42l-83 107l-84 -107h-41zM92 -57q0 -33 -11 -49q-17 -27 -43 -47q-20 -16 -55 -16h-53v33h52q18 0 24 4q29 16 49 54q3 6 3 23v485h34v-487z"/>
<glyph glyph-name="Kcommaaccent" horiz-adv-x="487" unicode="Ķ" d="M172 -53l-74 -113h-39l79 127zM417 0h-48l-258 280h-25v-280h-36v594h36v-281h25l257 281h46l-272 -297z"/>
<glyph glyph-name="kcommaaccent" horiz-adv-x="392" unicode="ķ" d="M225 -53l-74 -113h-39l79 127zM353 0h-48l-206 211h-24v-211h-34v594h34v-351h23l192 187h45l-206 -202z"/>
<glyph glyph-name="kgreenlandic" horiz-adv-x="392" unicode="ĸ" d="M335 0h-48l-186 212h-24v-212h-34v431h34v-187h23l172 187h61v-31h-45l-157 -171z"/>
<glyph glyph-name="Lacute" horiz-adv-x="445" unicode="Ĺ" d="M235 787l-106 -134l-30 13l95 121h41zM372 0h-322v594h36v-559h286v-35z"/>
<glyph glyph-name="lacute" horiz-adv-x="184" unicode="ĺ" d="M182 787l-106 -134l-30 13l95 121h41zM86 0h-34q-1 5 -3 18t-3.5 24t-1.5 17v535h34v-525q0 -11 4 -38t4 -31z"/>
<glyph glyph-name="Lcommaaccent" horiz-adv-x="445" unicode="Ļ" d="M225 -53l-74 -113h-39l79 127zM372 0h-322v594h36v-559h286v-35z"/>
<glyph glyph-name="lcommaaccent" horiz-adv-x="184" unicode="ļ" d="M135 -53l-74 -113h-39l79 127zM86 0h-34q-1 5 -3 18t-3.5 24t-1.5 17v535h34v-525q0 -11 4 -38t4 -31z"/>
<glyph glyph-name="Lcaron" horiz-adv-x="445" unicode="Ľ" d="M261 619l-54 -151h-40l60 165zM372 0h-322v594h36v-559h286v-35z"/>
<glyph glyph-name="lcaron" horiz-adv-x="231" unicode="ľ" d="M228 616l-54 -151h-40l60 165zM86 0h-34q-1 5 -3 18t-3.5 24t-1.5 17v535h34v-525q0 -11 4 -38t4 -31z"/>
<glyph glyph-name="Ldot" horiz-adv-x="445" unicode="Ŀ" d="M320 272h-49v52h49v-52zM372 0h-322v594h36v-559h286v-35z"/>
<glyph glyph-name="ldot" horiz-adv-x="225" unicode="ŀ" d="M195 272h-49v52h49v-52zM86 0h-34q-1 5 -3 18t-3.5 24t-1.5 17v535h34v-525q0 -11 4 -38t4 -31z"/>
<glyph glyph-name="Lslash" horiz-adv-x="466" unicode="Ł" d="M207 324l-101 -54v-235h286v-35h-322v251l-77 -40l-16 29l93 49v305h36v-286l85 46z"/>
<glyph glyph-name="lslash" horiz-adv-x="241" unicode="ł" d="M110 0h-34q-6 45 -6 48v204l-78 -41l-16 29l94 50v304h34v-286l86 46l16 -30l-102 -54v-210z"/>
<glyph glyph-name="Nacute" horiz-adv-x="540" unicode="Ń" d="M341 787l-106 -134l-30 13l95 121h41zM428 0h-69l-263 561h-10v-561h-36v594h69l264 -560h9v560h36v-594z"/>
<glyph glyph-name="nacute" horiz-adv-x="473" unicode="ń" d="M295 643l-106 -134l-30 13l95 121h41zM40 430h34l7 -56q13 17 55 46q21 15 44 15h82q33 0 55 -17q24 -19 43 -48q13 -19 13 -49v-321h-34v319q0 17 -3 23q-8 14 -23.5 31t-28.5 24q-9 5 -23 5h-78q-11 0 -19 -4q-70 -39 -83 -74v-324h-34v366z"/>
<glyph glyph-name="Ncommaaccent" horiz-adv-x="540" unicode="Ņ" d="M297 -53l-74 -113h-39l79 127zM428 0h-69l-263 561h-10v-561h-36v594h69l264 -560h9v560h36v-594z"/>
<glyph glyph-name="ncommaaccent" horiz-adv-x="473" unicode="ņ" d="M269 -53l-74 -113h-39l79 127zM40 430h34l7 -56q13 17 55 46q21 15 44 15h82q33 0 55 -17q24 -19 43 -48q13 -19 13 -49v-321h-34v319q0 17 -3 23q-8 14 -23.5 31t-28.5 24q-9 5 -23 5h-78q-11 0 -19 -4q-70 -39 -83 -74v-324h-34v366z"/>
<glyph glyph-name="Ncaron" horiz-adv-x="540" unicode="Ň" d="M373 788l-106 -135h-38l-106 135h42l83 -107l84 107h41zM428 0h-69l-263 561h-10v-561h-36v594h69l264 -560h9v560h36v-594z"/>
<glyph glyph-name="ncaron" horiz-adv-x="473" unicode="ň" d="M341 644l-106 -135h-38l-106 135h42l83 -107l84 107h41zM40 430h34l7 -56q13 17 55 46q21 15 44 15h82q33 0 55 -17q24 -19 43 -48q13 -19 13 -49v-321h-34v319q0 17 -3 23q-8 14 -23.5 31t-28.5 24q-9 5 -23 5h-78q-11 0 -19 -4q-70 -39 -83 -74v-324h-34v366z"/>
<glyph glyph-name="napostrophe" horiz-adv-x="473" unicode="ŉ" d="M30 616l-54 -151h-40l60 165zM40 430h34l7 -56q13 17 55 46q21 15 44 15h82q33 0 55 -17q24 -19 43 -48q13 -19 13 -49v-321h-34v319q0 17 -3 23q-8 14 -23.5 31t-28.5 24q-9 5 -23 5h-78q-11 0 -19 -4q-70 -39 -83 -74v-324h-34v366z"/>
<glyph glyph-name="Eng" horiz-adv-x="540" unicode="Ŋ" d="M428 -57q0 -33 -11 -49q-17 -27 -43 -47q-20 -16 -55 -16h-53v33h52q18 0 24 4q29 16 49 54q3 6 3 23v55h-35l-263 561h-10v-561h-36v594h69l264 -560h9v560h36v-651z"/>
<glyph glyph-name="eng" horiz-adv-x="473" unicode="ŋ" d="M373 -57q0 -33 -11 -49q-17 -27 -43 -47q-20 -16 -55 -16h-53v33h52q18 0 24 4q29 16 49 54q3 6 3 23v374q0 17 -3 23q-8 14 -23.5 31t-28.5 24q-9 5 -23 5h-78q-11 0 -19 -4q-70 -39 -83 -74v-324h-34v366l-6 64h34l7 -56q14 18 54 46q21 15 44 15h82q33 0 55 -17 q24 -19 43 -48q13 -19 13 -49v-378z"/>
<glyph glyph-name="Omacron" horiz-adv-x="558" unicode="Ō" d="M335 706h-157v33h157v-33zM422 120v354q0 13 -4 20q-10 18 -30.5 38.5t-34.5 28.5q-8 4 -18 4h-161q-9 0 -17 -4q-14 -8 -34.5 -28.5t-30.5 -38.5q-5 -8 -5 -20v-355q0 -12 4 -19q10 -16 32.5 -38t33.5 -29q8 -4 17 -4h161q10 0 18 4q14 8 34 28.5t31 38.5q4 7 4 20z M458 120q0 -28 -11 -44q-8 -13 -30 -36.5t-34 -30.5q-24 -15 -45 -15h-168q-20 0 -44 15q-12 8 -35 31.5t-30 35.5q-10 15 -10 44v353q0 26 10 43q8 12 30.5 36.5t34.5 32.5q22 15 44 15h168q23 0 45 -15q12 -8 34 -32t30 -36q11 -19 11 -44v-353z"/>
<glyph glyph-name="omacron" horiz-adv-x="473" unicode="ō" d="M333 110v211q0 15 -3 22q-17 33 -52 54q-9 5 -23 5h-109q-14 0 -23 -5q-34 -20 -51 -54q-3 -6 -3 -22v-211q0 -16 3 -22q7 -14 23 -30.5t29 -24.5q9 -5 23 -5h109q14 0 23 5q33 20 51 55q3 7 3 22zM367 320v-210q0 -32 -12 -49q-19 -29 -43 -48q-23 -18 -56 -18h-110 q-33 0 -56 18q-24 19 -43 48q-12 17 -12 49v210q0 32 12 49q19 29 43 48q23 18 56 18h110q33 0 56 -18q24 -19 43 -48q12 -17 12 -49zM282 562h-157v33h157v-33z"/>
<glyph glyph-name="Obreve" horiz-adv-x="558" unicode="Ŏ" d="M317 760h32q0 -39 -27 -65.5t-65 -26.5t-65 26.5t-27 65.5l34 -1q0 -28 16 -44.5t42 -16.5t43 17t17 45zM422 120v354q0 13 -4 20q-10 18 -30.5 38.5t-34.5 28.5q-8 4 -18 4h-161q-9 0 -17 -4q-14 -8 -34.5 -28.5t-30.5 -38.5q-5 -8 -5 -20v-355q0 -12 4 -19 q10 -16 32.5 -38t33.5 -29q8 -4 17 -4h161q10 0 18 4q14 8 34 28.5t31 38.5q4 7 4 20zM458 120q0 -28 -11 -44q-8 -13 -30 -36.5t-34 -30.5q-24 -15 -45 -15h-168q-20 0 -44 15q-12 8 -35 31.5t-30 35.5q-10 15 -10 44v353q0 26 10 43q8 12 30.5 36.5t34.5 32.5q22 15 44 15 h168q23 0 45 -15q12 -8 34 -32t30 -36q11 -19 11 -44v-353z"/>
<glyph glyph-name="obreve" d="M263 616h32q0 -39 -27 -65.5t-65 -26.5t-65 26.5t-27 65.5l34 -1q0 -28 16 -44.5t42 -16.5t43 17t17 45zM333 110v211q0 15 -3 22q-17 33 -52 54q-9 5 -23 5h-109q-14 0 -23 -5q-34 -20 -51 -54q-3 -6 -3 -22v-211q0 -16 3 -22q7 -14 23 -30.5t29 -24.5q9 -5 23 -5h109 q14 0 23 5q33 20 51 55q3 7 3 22zM367 320v-210q0 -32 -12 -49q-19 -29 -43 -48q-23 -18 -56 -18h-110q-33 0 -56 18q-24 19 -43 48q-12 17 -12 49v210q0 32 12 49q19 29 43 48q23 18 56 18h110q33 0 56 -18q24 -19 43 -48q12 -17 12 -49z" unicode="ŏ"/>
<glyph glyph-name="Ohungarumlaut" horiz-adv-x="558" unicode="Ő" d="M294 786l-106 -134l-30 13l95 121h41zM385 786l-106 -134l-30 13l95 121h41zM422 120v354q0 13 -4 20q-10 18 -30.5 38.5t-34.5 28.5q-8 4 -18 4h-161q-9 0 -17 -4q-14 -8 -34.5 -28.5t-30.5 -38.5q-5 -8 -5 -20v-355q0 -12 4 -19q10 -16 32.5 -38t33.5 -29q8 -4 17 -4 h161q10 0 18 4q14 8 34 28.5t31 38.5q4 7 4 20zM458 120q0 -28 -11 -44q-8 -13 -30 -36.5t-34 -30.5q-24 -15 -45 -15h-168q-20 0 -44 15q-12 8 -35 31.5t-30 35.5q-10 15 -10 44v353q0 26 10 43q8 12 30.5 36.5t34.5 32.5q22 15 44 15h168q23 0 45 -15q12 -8 34 -32t30 -36 q11 -19 11 -44v-353z"/>
<glyph glyph-name="ohungarumlaut" d="M253 643l-106 -134l-30 13l95 121h41zM344 643l-106 -134l-30 13l95 121h41zM333 110v211q0 15 -3 22q-17 33 -52 54q-9 5 -23 5h-109q-14 0 -23 -5q-34 -20 -51 -54q-3 -6 -3 -22v-211q0 -16 3 -22q7 -14 23 -30.5t29 -24.5q9 -5 23 -5h109q14 0 23 5q33 20 51 55 q3 7 3 22zM367 320v-210q0 -32 -12 -49q-19 -29 -43 -48q-23 -18 -56 -18h-110q-33 0 -56 18q-24 19 -43 48q-12 17 -12 49v210q0 32 12 49q19 29 43 48q23 18 56 18h110q33 0 56 -18q24 -19 43 -48q12 -17 12 -49z" unicode="ő"/>
<glyph glyph-name="OE" horiz-adv-x="854" unicode="Œ" d="M412 120v361l-4 13q-10 18 -30.5 38.5t-34.5 28.5q-8 4 -18 4h-151q-9 0 -17 -4q-14 -8 -34.5 -28.5t-30.5 -38.5q-5 -8 -5 -20v-355q0 -12 4 -19q10 -16 32.5 -38t33.5 -29q8 -4 17 -4h151q10 0 18 4q14 8 34 28.5t31 38.5q4 7 4 20zM740 0h-328v45q-28 -30 -39 -36 q-24 -15 -45 -15h-158q-20 0 -44 15q-12 8 -35 31.5t-30 35.5q-10 15 -10 44v353q0 26 10 43q8 12 30.5 36.5t34.5 32.5q22 15 44 15h158q23 0 45 -15q12 -8 39 -37v46h328v-35h-292v-242h273v-35h-273v-247h292v-35z"/>
<glyph glyph-name="oe" horiz-adv-x="755" unicode="œ" d="M632 230v89q0 17 -2 22q-7 15 -23 31.5t-29 24.5q-9 5 -23 5h-111q-13 0 -22 -5q-13 -8 -29 -24.5t-23 -31.5q-3 -6 -3 -22v-89h265zM330 88q3 8 3 15v7v211v6q0 9 -3 16q-17 33 -52 54q-9 5 -23 5h-109q-14 0 -23 -5q-34 -20 -51 -54q-3 -6 -3 -22v-211q0 -16 3 -22 q7 -14 23 -30.5t29 -24.5q9 -5 23 -5h109q14 0 23 5q33 20 51 55zM666 197h-299v-85q0 -16 3 -22q19 -37 52 -57q9 -5 22 -5h113q13 0 24 6q21 13 48 51l32 -13q-27 -42 -49 -59q-23 -18 -55 -18h-112q-33 0 -56 18q-17 12 -39 41q-19 -27 -38 -41q-23 -18 -56 -18h-110 q-33 0 -56 18q-24 19 -43 48q-12 17 -12 49v210q0 32 12 49q19 29 43 48q23 18 56 18h110q33 0 56 -18q21 -17 38 -42q21 27 39 42q23 18 56 18h110q33 0 56 -18q24 -19 43 -48q12 -17 12 -49v-123z"/>
<glyph glyph-name="Racute" horiz-adv-x="544" unicode="Ŕ" d="M293 787l-106 -134l-30 13l95 121h41zM393 393v83q0 13 -4 22q-20 38 -51 55q-10 6 -23 6h-229v-245h229q13 0 22 5q14 8 30 23.5t23 29.5q3 7 3 21zM429 392q0 -26 -13 -46q-12 -20 -49 -51q-20 -16 -51 -16h-24l160 -279h-41l-160 279h-165v-279h-36v594h266 q29 0 51 -17q10 -8 27.5 -26.5t21.5 -25.5q13 -20 13 -47v-86z"/>
<glyph glyph-name="racute" horiz-adv-x="392" unicode="ŕ" d="M288 643l-106 -134l-30 13l95 121h41zM230 402h-48q-11 0 -19 -4q-70 -39 -83 -74v-324h-34v366l-7 64h34l7 -56q13 17 55 46q21 15 44 15h49q32 0 55 -18q22 -17 49 -59l-33 -13q-30 43 -46 52q-9 5 -23 5z"/>
<glyph glyph-name="Rcommaaccent" horiz-adv-x="544" unicode="Ŗ" d="M393 393v83q0 13 -4 22q-20 38 -51 55q-10 6 -23 6h-229v-245h229q13 0 22 5q14 8 30 23.5t23 29.5q3 7 3 21zM429 392q0 -26 -13 -46q-5 -8 -22 -26t-27 -25q-22 -16 -51 -16h-24l160 -279h-41l-160 279h-165v-279h-36v594h266q29 0 51 -17q10 -7 27 -25.5t22 -26.5 q13 -20 13 -47v-86zM225 -53l-74 -113h-39l79 127z"/>
<glyph glyph-name="rcommaaccent" horiz-adv-x="392" unicode="ŗ" d="M141 -53l-74 -113h-39l79 127zM230 402h-48q-11 0 -19 -4q-70 -39 -83 -74v-324h-34v366l-7 64h34l7 -56q13 17 55 46q21 15 44 15h49q32 0 55 -18q22 -17 49 -59l-33 -13q-30 43 -46 52q-9 5 -23 5z"/>
<glyph glyph-name="Rcaron" horiz-adv-x="544" unicode="Ř" d="M393 393v83q0 13 -4 22q-20 38 -51 55q-10 6 -23 6h-229v-245h229q13 0 22 5q14 8 30 23.5t23 29.5q3 7 3 21zM429 392q0 -26 -13 -46q-5 -8 -22 -26t-27 -25q-22 -16 -51 -16h-24l160 -279h-41l-160 279h-165v-279h-36v594h266q29 0 51 -17q10 -7 27 -25.5t22 -26.5 q13 -20 13 -47v-86zM348 788l-106 -135h-38l-106 135h42l83 -107l84 107h41z"/>
<glyph glyph-name="rcaron" horiz-adv-x="392" unicode="ř" d="M316 644l-106 -135h-38l-106 135h42l83 -107l84 107h41zM230 402h-48q-11 0 -19 -4q-70 -39 -83 -74v-324h-34v366l-7 64h34l7 -56q13 17 55 46q21 15 44 15h49q32 0 55 -18q22 -17 49 -59l-33 -13q-30 43 -46 52q-9 5 -23 5z"/>
<glyph glyph-name="Sacute" horiz-adv-x="540" unicode="Ś" d="M323 787l-106 -134l-30 13l95 121h41zM445 120q0 -25 -11 -44q-7 -12 -30 -35.5t-35 -31.5q-24 -15 -44 -15h-172q-25 0 -45 15q-43 32 -73 88l36 10q11 -21 31.5 -43.5t35.5 -30.5q8 -4 18 -4h165q10 0 17 4q15 8 36 28.5t31 38.5q4 8 4 21v65q0 48 -40 60l-268 76 q-26 7 -42 31t-16 55v65q0 27 10 44q8 12 30.5 36t34.5 32q22 15 44 15h150q20 0 44 -15q39 -25 75 -88l-36 -11q-9 20 -30 42.5t-37 32.5q-8 4 -19 4h-143q-10 0 -18 -4q-14 -8 -35 -29.5t-31 -39.5q-3 -8 -3 -19v-62q0 -46 38 -58l272 -76q26 -7 41 -30t15 -54v-73z"/>
<glyph glyph-name="sacute" horiz-adv-x="447" unicode="ś" d="M288 643l-106 -134l-30 13l95 121h41zM357 106q0 -31 -13 -50q-15 -24 -39 -42q-24 -19 -55 -19h-120q-32 0 -55 18q-26 21 -48 59l32 13q23 -39 46 -52q9 -5 23 -5h121q14 0 23 5q33 19 48 50q3 6 3 24v38q0 21 -14 35t-33 16l-165 12q-35 2 -56.5 26t-21.5 58v32 q0 31 13 50q16 25 39 43t55 18h104q32 0 55 -18q22 -17 49 -59l-31 -12q-21 36 -48 51q-9 5 -22 5h-106q-16 0 -25 -5q-31 -19 -46 -49q-3 -6 -3 -25v-31q0 -21 14 -35t33 -16l165 -12q35 -2 56.5 -26.5t21.5 -58.5v-38z"/>
<glyph glyph-name="Scircumflex" horiz-adv-x="540" unicode="Ŝ" d="M118 653l106 135h38l106 -135h-42l-83 107l-84 -107h-41zM445 120q0 -25 -11 -44q-7 -12 -30 -35.5t-35 -31.5q-24 -15 -44 -15h-172q-25 0 -45 15q-43 32 -73 88l36 10q11 -21 31.5 -43.5t35.5 -30.5q8 -4 18 -4h165q10 0 17 4q15 8 36 28.5t31 38.5q4 8 4 21v65 q0 48 -40 60l-268 76q-26 7 -42 31t-16 55v65q0 27 10 44q8 12 30.5 36t34.5 32q22 15 44 15h150q20 0 44 -15q39 -25 75 -88l-36 -11q-9 20 -30 42.5t-37 32.5q-8 4 -19 4h-143q-10 0 -18 -4q-14 -8 -35 -29.5t-31 -39.5q-3 -8 -3 -19v-62q0 -46 38 -58l272 -76 q26 -7 41 -30t15 -54v-73z"/>
<glyph glyph-name="scircumflex" horiz-adv-x="447" unicode="ŝ" d="M71 509l106 135h38l106 -135h-42l-83 107l-84 -107h-41zM357 106q0 -31 -13 -50q-15 -24 -39 -42q-24 -19 -55 -19h-120q-32 0 -55 18q-26 21 -48 59l32 13q23 -39 46 -52q9 -5 23 -5h121q14 0 23 5q33 19 48 50q3 6 3 24v38q0 21 -14 35t-33 16l-165 12q-35 2 -56.5 26 t-21.5 58v32q0 31 13 50q16 25 39 43t55 18h104q32 0 55 -18q22 -17 49 -59l-31 -12q-21 36 -48 51q-9 5 -22 5h-106q-16 0 -25 -5q-31 -19 -46 -49q-3 -6 -3 -25v-31q0 -21 14 -35t33 -16l165 -12q35 -2 56.5 -26.5t21.5 -58.5v-38z"/>
<glyph glyph-name="Scedilla" horiz-adv-x="540" unicode="Ş" d="M305 -53l-74 -113h-39l79 127zM445 120q0 -25 -11 -44q-7 -12 -30 -35.5t-35 -31.5q-24 -15 -44 -15h-172q-25 0 -45 15q-43 32 -73 88l36 10q11 -21 31.5 -43.5t35.5 -30.5q8 -4 18 -4h165q10 0 17 4q15 8 36 28.5t31 38.5q4 8 4 21v65q0 48 -40 60l-268 76 q-26 7 -42 31t-16 55v65q0 27 10 44q8 12 30.5 36t34.5 32q22 15 44 15h150q20 0 44 -15q39 -25 75 -88l-36 -11q-9 20 -30 42.5t-37 32.5q-8 4 -19 4h-143q-10 0 -18 -4q-14 -8 -35 -29.5t-31 -39.5q-3 -8 -3 -19v-62q0 -46 38 -58l272 -76q26 -7 41 -30t15 -54v-73z"/>
<glyph glyph-name="scedilla" horiz-adv-x="447" unicode="ş" d="M225 -53l-74 -113h-39l79 127zM357 106q0 -31 -13 -50q-15 -24 -39 -42q-24 -19 -55 -19h-120q-32 0 -55 18q-26 21 -48 59l32 13q23 -39 46 -52q9 -5 23 -5h121q14 0 23 5q33 19 48 50q3 6 3 24v38q0 21 -14 35t-33 16l-165 12q-35 2 -56.5 26t-21.5 58v32q0 31 13 50 q16 25 39 43t55 18h104q32 0 55 -18q22 -17 49 -59l-31 -12q-21 36 -48 51q-9 5 -22 5h-106q-16 0 -25 -5q-31 -19 -46 -49q-3 -6 -3 -25v-31q0 -21 14 -35t33 -16l165 -12q35 -2 56.5 -26.5t21.5 -58.5v-38z"/>
<glyph glyph-name="Scaron" horiz-adv-x="540" unicode="Š" d="M367 788l-106 -135h-38l-106 135h42l83 -107l84 107h41zM445 120q0 -25 -11 -44q-7 -12 -30 -35.5t-35 -31.5q-24 -15 -44 -15h-165q-25 0 -45 15q-43 32 -73 88l36 10q11 -21 31.5 -43.5t35.5 -30.5q8 -4 18 -4h158q10 0 17 4q15 8 36 28.5t31 38.5q4 8 4 21v65 q0 19 -11 36.5t-29 22.5l-271 77q-24 7 -39.5 31.5t-15.5 54.5v65q0 27 10 44q8 13 30.5 37t34.5 31q24 15 44 15h150q20 0 44 -15q39 -25 75 -88l-36 -11q-9 20 -30 42.5t-37 32.5q-8 4 -19 4h-143q-10 0 -18 -4q-14 -8 -35 -29.5t-31 -39.5q-3 -8 -3 -19v-62 q0 -19 10.5 -35t27.5 -21l272 -78q25 -7 40.5 -30.5t15.5 -53.5v-73z"/>
<glyph glyph-name="scaron" horiz-adv-x="447" unicode="š" d="M357 106q0 -31 -13 -50q-15 -24 -39 -42q-24 -19 -55 -19h-120q-32 0 -55 18q-26 21 -48 59l32 13q23 -39 46 -52q9 -5 23 -5h121q14 0 23 5q33 19 48 50q3 6 3 24v38q0 21 -14 35t-33 16l-165 12q-35 2 -56.5 26t-21.5 58v32q0 31 13 50q16 25 39 43t55 18h104 q32 0 55 -18q22 -17 49 -59l-31 -12q-21 36 -48 51q-9 5 -22 5h-106q-16 0 -25 -5q-31 -19 -46 -49q-3 -6 -3 -25v-31q0 -21 14 -35t33 -16l165 -12q35 -2 56.5 -26.5t21.5 -58.5v-38zM317 644l-106 -135h-38l-106 135h42l83 -107l84 107h41z"/>
<glyph glyph-name="Tcommaaccent" horiz-adv-x="454" unicode="Ţ" d="M234 -53l-74 -113h-39l79 127zM384 559h-174v-559h-36v559h-174v35h384v-35z"/>
<glyph glyph-name="tcommaaccent" horiz-adv-x="312" unicode="ţ" d="M225 -53l-74 -113h-39l79 127zM242 397h-132v-281q0 -18 3 -25q18 -34 50 -52q10 -6 25 -6h53v-33h-54q-32 0 -55 18q-26 20 -43 47q-13 19 -13 49v283h-71v33h71v164h34v-164h132v-33z"/>
<glyph glyph-name="Tcaron" horiz-adv-x="454" unicode="Ť" d="M318 788l-106 -135h-38l-106 135h42l83 -107l84 107h41zM384 559h-174v-559h-36v559h-174v35h384v-35z"/>
<glyph glyph-name="tcaron" horiz-adv-x="379" unicode="ť" d="M389 616l-54 -151h-40l60 165zM242 397h-132v-281q0 -18 3 -25q18 -34 50 -52q10 -6 25 -6h53v-33h-54q-32 0 -55 18q-26 20 -43 47q-13 19 -13 49v283h-71v33h71v164h34v-164h132v-33z"/>
<glyph glyph-name="Tbar" horiz-adv-x="454" unicode="Ŧ" d="M308 281h-98v-281h-36v281h-103v33h103v245h-174v35h384v-35h-174v-245h98v-33z"/>
<glyph glyph-name="tbar" horiz-adv-x="312" unicode="ŧ" d="M241 281h-131v-165q0 -18 3 -25q18 -34 50 -52q10 -6 25 -6h53v-33h-54q-32 0 -55 18q-26 20 -43 47q-13 19 -13 49v167h-72v33h72v83h-71v33h71v164h34v-164h132v-33h-132v-83h131v-33z"/>
<glyph glyph-name="Utilde" horiz-adv-x="526" unicode="Ũ" d="M362 677l-32 -10q-16 35 -47 35q-1 0 -4 -0.5t-4 -0.5l-69 -22q-11 -4 -24 -4q-24 0 -44.5 15t-29.5 43l32 10q15 -34 47 -34q5 0 8 1l71 22q11 4 23 4q24 0 43.5 -15.5t29.5 -43.5zM424 119q0 -24 -11 -43q-8 -13 -30 -36.5t-34 -30.5q-24 -15 -44 -15h-143 q-21 0 -45 15q-12 7 -34 30.5t-30 36.5q-11 17 -11 43v475h36v-476q0 -6 5 -19q10 -18 31 -38t36 -28q8 -4 17 -4h133q10 0 18 4q15 8 36 28.5t30 37.5q4 10 4 19v476h36v-475z"/>
<glyph glyph-name="utilde" horiz-adv-x="467" unicode="ũ" d="M329 547l-32 -10q-16 35 -47 35q-2 0 -4 -0.5t-4 -0.5l-69 -22q-11 -4 -24 -4q-24 0 -44.5 15t-29.5 43l32 10q15 -34 47 -34q5 0 8 1l71 22q11 4 23 4q24 0 43.5 -15.5t29.5 -43.5zM339 0l-7 56q-13 -17 -55 -46q-21 -15 -44 -15h-82q-33 0 -55 17q-24 19 -43 48 q-13 19 -13 49v321h34v-319q0 -17 3 -23q8 -14 23.5 -31t28.5 -24q9 -5 23 -5h78q11 0 19 4q70 39 83 74v324h34v-366l7 -64h-34z"/>
<glyph glyph-name="Umacron" horiz-adv-x="526" unicode="Ū" d="M314 702h-157v33h157v-33zM424 119q0 -24 -11 -43q-8 -13 -30 -36.5t-34 -30.5q-24 -15 -44 -15h-143q-21 0 -45 15q-12 7 -34 30.5t-30 36.5q-11 17 -11 43v475h36v-476q0 -6 5 -19q10 -18 31 -38t36 -28q8 -4 17 -4h133q10 0 18 4q15 8 36 28.5t30 37.5q4 10 4 19v476 h36v-475z"/>
<glyph glyph-name="umacron" horiz-adv-x="467" unicode="ū" d="M279 562h-157v33h157v-33zM339 0l-7 56q-13 -17 -55 -46q-21 -15 -44 -15h-82q-33 0 -55 17q-24 19 -43 48q-13 19 -13 49v321h34v-319q0 -17 3 -23q8 -14 23.5 -31t28.5 -24q9 -5 23 -5h78q11 0 19 4q70 39 83 74v324h34v-366l7 -64h-34z"/>
<glyph glyph-name="Ubreve" horiz-adv-x="526" unicode="Ŭ" d="M288 760h32q0 -39 -27 -65.5t-65 -26.5t-65 26.5t-27 65.5l34 -1q0 -28 16 -44.5t42 -16.5t43 17t17 45zM424 119q0 -24 -11 -43q-8 -13 -30 -36.5t-34 -30.5q-24 -15 -44 -15h-143q-21 0 -45 15q-12 7 -34 30.5t-30 36.5q-11 17 -11 43v475h36v-476q0 -6 5 -19 q10 -18 31 -38t36 -28q8 -4 17 -4h133q10 0 18 4q15 8 36 28.5t30 37.5q4 10 4 19v476h36v-475z"/>
<glyph glyph-name="ubreve" horiz-adv-x="467" unicode="ŭ" d="M265 616h32q0 -39 -27 -65.5t-65 -26.5t-65 26.5t-27 65.5l34 -1q0 -28 16 -44.5t42 -16.5t43 17t17 45zM373 0h-34l-7 56q-13 -17 -55 -46q-21 -15 -44 -15h-82q-33 0 -55 17q-24 19 -43 48q-13 19 -13 49v321h34v-319q0 -17 3 -23q8 -14 23.5 -31t28.5 -24q9 -5 23 -5 h78q11 0 19 4q70 39 83 74v324h34v-366z"/>
<glyph glyph-name="Uring" horiz-adv-x="526" unicode="Ů" d="M295 730q0 26 -17 43.5t-43 17.5t-42.5 -17.5t-16.5 -43.5q0 -28 16.5 -45t42.5 -17t43 17t17 45zM327 730q0 -39 -27 -65.5t-65 -26.5t-65 26.5t-27 65.5q0 37 27 64t65 27t65 -27t27 -64zM424 119q0 -24 -11 -43q-8 -13 -30 -36.5t-34 -30.5q-24 -15 -44 -15h-143 q-21 0 -45 15q-12 7 -34 30.5t-30 36.5q-11 17 -11 43v475h36v-476q0 -6 5 -19q10 -18 31 -38t36 -28q8 -4 17 -4h133q10 0 18 4q15 8 36 28.5t30 37.5q4 10 4 19v476h36v-475z"/>
<glyph glyph-name="uring" horiz-adv-x="467" unicode="ů" d="M263 586q0 26 -17 43.5t-43 17.5t-42.5 -17.5t-16.5 -43.5q0 -28 16.5 -45t42.5 -17t43 17t17 45zM295 586q0 -39 -27 -65.5t-65 -26.5t-65 26.5t-27 65.5q0 37 27 64t65 27t65 -27t27 -64zM339 0l-7 56q-13 -17 -55 -46q-21 -15 -44 -15h-82q-33 0 -55 17q-24 19 -43 48 q-13 19 -13 49v321h34v-319q0 -17 3 -23q8 -14 23.5 -31t28.5 -24q9 -5 23 -5h78q11 0 19 4q70 39 83 74v324h34v-366l7 -64h-34z"/>
<glyph glyph-name="Uhungarumlaut" horiz-adv-x="526" unicode="Ű" d="M271 787l-106 -134l-30 13l95 121h41zM362 787l-106 -134l-30 13l95 121h41zM424 119q0 -24 -11 -43q-8 -13 -30 -36.5t-34 -30.5q-24 -15 -44 -15h-143q-21 0 -45 15q-12 7 -34 30.5t-30 36.5q-11 17 -11 43v475h36v-476q0 -6 5 -19q10 -18 31 -38t36 -28q8 -4 17 -4 h133q10 0 18 4q15 8 36 28.5t30 37.5q4 10 4 19v476h36v-475z"/>
<glyph glyph-name="uhungarumlaut" horiz-adv-x="467" unicode="ű" d="M253 643l-106 -134l-30 13l95 121h41zM344 643l-106 -134l-30 13l95 121h41zM339 0l-7 56q-13 -17 -55 -46q-21 -15 -44 -15h-82q-33 0 -55 17q-24 19 -43 48q-13 19 -13 49v321h34v-319q0 -17 3 -23q8 -14 23.5 -31t28.5 -24q9 -5 23 -5h78q11 0 19 4q70 39 83 74v324 h34v-366l7 -64h-34z"/>
<glyph glyph-name="Uogonek" horiz-adv-x="526" unicode="Ų" d="M254 -166l-74 113l34 14l79 -127h-39zM424 119q0 -24 -11 -43q-8 -13 -30 -36.5t-34 -30.5q-24 -15 -44 -15h-143q-21 0 -45 15q-12 7 -34 30.5t-30 36.5q-11 17 -11 43v475h36v-476q0 -6 5 -19q10 -18 31 -38t36 -28q8 -4 17 -4h133q10 0 18 4q15 8 36 28.5t30 37.5 q4 10 4 19v476h36v-475z"/>
<glyph glyph-name="uogonek" horiz-adv-x="467" unicode="ų" d="M216 -166l-74 113l34 14l79 -127h-39zM373 0h-34l-7 56q-13 -17 -55 -46q-21 -15 -44 -15h-82q-33 0 -55 17q-24 19 -43 48q-13 19 -13 49v321h34v-319q0 -17 3 -23q8 -14 23.5 -31t28.5 -24q9 -5 23 -5h78q11 0 19 4q70 39 83 74v324h34v-366z"/>
<glyph glyph-name="Wcircumflex" horiz-adv-x="680" unicode="Ŵ" d="M182 653l106 135h38l106 -135h-42l-83 107l-84 -107h-41zM624 594l-130 -594h-64l-122 541l-121 -541h-65l-126 594h36l116 -558h14l125 558h43l125 -558h14l118 558h37z"/>
<glyph glyph-name="wcircumflex" horiz-adv-x="654" unicode="ŵ" d="M171 509l106 135h38l106 -135h-42l-83 107l-84 -107h-41zM579 430l-118 -430h-61l-105 389l-107 -389h-60l-117 430h35l105 -396h15l105 396h47l104 -396h16l106 396h35z"/>
<glyph glyph-name="Ycircumflex" horiz-adv-x="445" unicode="Ŷ" d="M73 653l106 135h38l106 -135h-42l-83 107l-84 -107h-41zM398 594l-184 -329v-265h-36v265l-183 329h40l161 -292l162 292h40z"/>
<glyph glyph-name="ycircumflex" horiz-adv-x="400" unicode="ŷ" d="M53 509l106 135h38l106 -135h-42l-83 107l-84 -107h-41zM338 430l-185 -594h-38l55 164h-26l-135 430h37l121 -395h14l121 395h36z"/>
<glyph glyph-name="Ydieresis" horiz-adv-x="445" unicode="Ÿ" d="M155 697h-54v56h54v-56zM289 697h-54v56h54v-56zM398 594l-184 -329v-265h-36v265l-183 329h40l161 -292l162 292h40z"/>
<glyph glyph-name="Zacute" horiz-adv-x="465" unicode="Ź" d="M290 787l-106 -134l-30 13l95 121h41zM382 0h-348v34l308 525h-308v35h348v-36l-307 -523h307v-35z"/>
<glyph glyph-name="zacute" horiz-adv-x="409" unicode="ź" d="M268 643l-106 -134l-30 13l95 121h41zM329 0h-294v29l242 368h-250v33h291v-31l-242 -366h253v-33z"/>
<glyph glyph-name="Zdotaccent" horiz-adv-x="465" unicode="Ż" d="M232 696h-49v52h49v-52zM382 0h-348v34l308 525h-308v35h348v-36l-307 -523h307v-35z"/>
<glyph glyph-name="zdotaccent" horiz-adv-x="409" unicode="ż" d="M198 552h-49v52h49v-52zM329 0h-294v29l242 368h-250v33h291v-31l-242 -366h253v-33z"/>
<glyph glyph-name="Zcaron" horiz-adv-x="465" unicode="Ž" d="M345 788l-106 -135h-38l-106 135h42l83 -107l84 107h41zM382 0h-348v34l308 525h-308v35h348v-36l-307 -523h307v-35z"/>
<glyph glyph-name="zcaron" horiz-adv-x="409" unicode="ž" d="M307 644l-106 -135h-38l-106 135h42l83 -107l84 107h41zM329 0h-294v29l242 368h-250v33h291v-31l-242 -366h253v-33z"/>
<glyph glyph-name="longs" horiz-adv-x="313" unicode="ſ" d="M127 492v-492h-34v397h-71v33h71v62q0 27 12 44q17 27 43 47q22 17 56 17h54v-32h-54q-17 0 -26 -6q-31 -19 -48 -51q-3 -7 -3 -19z"/>
<glyph glyph-name="florin" horiz-adv-x="313" unicode="ƒ" d="M258 397h-131v-457q0 -32 -12 -49q-17 -27 -43 -47q-20 -16 -55 -16h-53v33h52q17 0 23 4q31 17 50 53q4 8 4 22v60v397h-71v33h71v1v56q0 32 12 49q17 27 43 47q22 17 56 17h54v-33h-53q-19 0 -26 -5q-33 -20 -49 -50q-3 -7 -3 -24v-57v-1h131v-33z"/>
<glyph glyph-name="Scommaaccent" horiz-adv-x="540" unicode="Ș" d="M305 -53l-74 -113h-39l79 127zM445 120q0 -25 -11 -44q-7 -12 -30 -35.5t-35 -31.5q-24 -15 -44 -15h-172q-25 0 -45 15q-43 32 -73 88l36 10q11 -21 31.5 -43.5t35.5 -30.5q8 -4 18 -4h165q10 0 17 4q15 8 36 28.5t31 38.5q4 8 4 21v65q0 48 -40 60l-268 76 q-26 7 -42 31t-16 55v65q0 27 10 44q8 12 30.5 36t34.5 32q22 15 44 15h150q20 0 44 -15q39 -25 75 -88l-36 -11q-9 20 -30 42.5t-37 32.5q-8 4 -19 4h-143q-10 0 -18 -4q-14 -8 -35 -29.5t-31 -39.5q-3 -8 -3 -19v-62q0 -46 38 -58l272 -76q26 -7 41 -30t15 -54v-73z"/>
<glyph glyph-name="scommaaccent" horiz-adv-x="447" unicode="ș" d="M225 -53l-74 -113h-39l79 127zM357 106q0 -31 -13 -50q-15 -24 -39 -42q-24 -19 -55 -19h-120q-32 0 -55 18q-26 21 -48 59l32 13q23 -39 46 -52q9 -5 23 -5h121q14 0 23 5q33 19 48 50q3 6 3 24v38q0 21 -14 35t-33 16l-165 12q-35 2 -56.5 26t-21.5 58v32q0 31 13 50 q16 25 39 43t55 18h104q32 0 55 -18q22 -17 49 -59l-31 -12q-21 36 -48 51q-9 5 -22 5h-106q-16 0 -25 -5q-31 -19 -46 -49q-3 -6 -3 -25v-31q0 -21 14 -35t33 -16l165 -12q35 -2 56.5 -26.5t21.5 -58.5v-38z"/>
<glyph glyph-name="circumflex" horiz-adv-x="424" unicode="ˆ" d="M79 509l106 135h38l106 -135h-42l-83 107l-84 -107h-41z"/>
<glyph glyph-name="caron" horiz-adv-x="424" unicode="ˇ" d="M329 644l-106 -135h-38l-106 135h42l83 -107l84 107h41z"/>
<glyph glyph-name="breve" horiz-adv-x="340" unicode="˘" d="M208 616h32q0 -39 -27 -65.5t-65 -26.5t-65 26.5t-27 65.5l34 -1q0 -28 16 -44.5t42 -16.5t43 17t17 45z"/>
<glyph glyph-name="dotaccent" horiz-adv-x="191" unicode="˙" d="M90 552h-49v52h49v-52z"/>
<glyph glyph-name="ring" horiz-adv-x="374" unicode="˚" d="M223 586q0 25 -16 41.5t-41 16.5t-40.5 -16.5t-15.5 -41.5q0 -26 15.5 -42.5t40.5 -16.5t41 16.5t16 42.5zM253 586q0 -36 -25.5 -61.5t-61.5 -25.5t-61.5 25t-25.5 62q0 35 25.5 60.5t61.5 25.5q35 0 61 -25.5t26 -60.5z"/>
<glyph glyph-name="ogonek" horiz-adv-x="406" unicode="˛" d="M201 -166l-74 113l34 14l79 -127h-39z"/>
<glyph glyph-name="tilde" horiz-adv-x="414" unicode="˜" d="M314 547l-32 -10q-16 35 -47 35q-1 0 -4 -0.5t-4 -0.5l-69 -22q-11 -4 -24 -4q-24 0 -44.5 15t-29.5 43l32 10q15 -34 47 -34q5 0 8 1l71 22q11 4 23 4q24 0 43.5 -15.5t29.5 -43.5z"/>
<glyph glyph-name="hungarumlaut" horiz-adv-x="371" unicode="˝" d="M253 643l-106 -134l-30 13l95 121h41zM344 643l-106 -134l-30 13l95 121h41z"/>
<glyph glyph-name="endash" horiz-adv-x="450" unicode="–" d="M345 231h-305v32h305v-32z"/>
<glyph glyph-name="emdash" horiz-adv-x="542" unicode="—" d="M437 232h-397v31h397v-31z"/>
<glyph glyph-name="quoteleft" horiz-adv-x="218" unicode="‘" d="M159 631l-54 -151h-40l60 165z"/>
<glyph glyph-name="quoteright" horiz-adv-x="188" unicode="’" d="M35 494l54 151h40l-60 -165z"/>
<glyph glyph-name="quotesinglbase" horiz-adv-x="195" unicode="‚" d="M136 64l-54 -151h-40l60 165z"/>
<glyph glyph-name="quotedblleft" horiz-adv-x="336" unicode="“" d="M183 494l54 151h40l-60 -165zM65 494l54 151h40l-60 -165z"/>
<glyph glyph-name="quotedblright" horiz-adv-x="306" unicode="”" d="M129 631l-54 -151h-40l60 165zM247 631l-54 -151h-40l60 165z"/>
<glyph glyph-name="quotedblbase" horiz-adv-x="313" unicode="„" d="M136 64l-54 -151h-40l60 165zM254 64l-54 -151h-40l60 165z"/>
<glyph glyph-name="bullet" horiz-adv-x="428" unicode="•" d="M294 241q0 -31 -16 -53q-15 -23 -41 -43q-17 -13 -41 -13h-27q-24 0 -41 13q-28 22 -43 44q-15 21 -15 52v21q0 28 16 52q13 22 42 44q17 13 41 13h27q24 0 41 -13q29 -23 41 -42q16 -24 16 -54v-21z"/>
<glyph glyph-name="guilsinglleft" horiz-adv-x="373" unicode="‹" d="M120 248l124 -142l-37 -12l-134 153l134 155l38 -13z"/>
<glyph glyph-name="guilsinglright" horiz-adv-x="373" unicode="›" d="M74 106l124 142l-125 141l38 13l134 -155l-134 -153z"/>
<glyph glyph-name="fraction" horiz-adv-x="648" unicode="⁄"/>
<glyph glyph-name="Euro" horiz-adv-x="572" unicode="€" d="M464 97q-36 -63 -75 -88q-24 -15 -44 -15h-141q-21 0 -45 15q-12 7 -34 30.5t-30 36.5q-11 17 -11 43v105h-43v33h43v78h-43v33h43v105q0 27 11 43q8 13 30.5 37t33.5 31q24 15 44 15h142q20 0 44 -15q39 -25 75 -88l-36 -11q-9 20 -30 43t-37 32q-8 4 -19 4h-138 q-9 0 -17 -4q-14 -8 -33 -28t-29 -38q-5 -8 -5 -23v-103h233v-33h-233v-78h233v-33h-233v-105q0 -8 5 -18q10 -18 31 -39t35 -29q8 -4 17 -4h135q10 0 18 4q15 9 34.5 31.5t31.5 42.5z"/>
</font>
</defs>
</svg>
