<?xml version="1.0" encoding="utf-8"?>
<!-- Generator: Adobe Illustrator 18.0.0, SVG Export Plug-In . SVG Version: 6.00 Build 0)  -->
<!DOCTYPE svg PUBLIC "-//W3C//DTD SVG 1.1//EN" "http://www.w3.org/Graphics/SVG/1.1/DTD/svg11.dtd">
<svg version="1.1" id="Layer_1" xmlns="http://www.w3.org/2000/svg" xmlns:xlink="http://www.w3.org/1999/xlink" x="0px" y="0px"
	 viewBox="0 0 124.3 97.8" enable-background="new 0 0 124.3 97.8" xml:space="preserve">
<g>
	<path fill="#141D28" d="M120.1,17.6c-4.5-3.6-12.6-9-24.8-12.9c-0.7-0.2-1.5,0.2-1.7,0.9l-2.7,8.9c-0.6,1.8-3.2,1.7-3.6-0.1
		L84.6,2.8c-0.1-0.5-0.5-0.9-1-1C77.4,0.7,70.6,0,62.9,0c-8.3,0-15.7,0.8-22.3,2.1c-0.5,0.1-0.9,0.5-1,1l-2.4,11.2
		c-0.4,1.9-3,2-3.6,0.2l-2.8-8.6c-0.2-0.7-1-1.1-1.7-0.9C17.2,8.9,9,14.1,4.4,17.6c-2.8,2.2-4.4,5.5-4.4,9l0,46c0,3.3,1.4,6.6,4,8.7
		c7.2,5.9,24.6,16.5,57.9,16.5c33.3,0,51-10.6,58.2-16.5c2.6-2.1,4.1-5.4,4.1-8.8V26.4C124.3,23,122.7,19.7,120.1,17.6z M112.2,73.4
		c0,1.5-0.8,2.9-2.2,3.6c-5.6,2.9-21.7,9.8-47.8,9.8c-26.1,0-42.4-6.9-48.1-9.8c-1.4-0.7-2.2-2.1-2.2-3.7v-0.1c0-1.8,1.2-3.5,3-4
		c1.9-0.5,4.9-1.2,9.1-1.9c0.5-0.1,0.9-0.4,1.1-0.9l4.3-13.7c0.6-2,3.5-1.9,4,0.2l2.7,11.9c0.1,0.6,0.7,1.1,1.4,1
		c6.7-0.6,14.9-1,24.8-1c9,0,16.6,0.3,22.9,0.8c0.7,0.1,1.2-0.4,1.4-1L89.1,53c0.4-2.1,3.3-2.2,4-0.2l4.3,13.5
		c0.2,0.5,0.6,0.8,1.1,0.9c5.1,0.8,8.6,1.6,10.8,2.2C111,69.9,112.2,71.5,112.2,73.4L112.2,73.4z"/>
	<circle fill="#00BCDE" cx="62.1" cy="32.9" r="10.8"/>
</g>
</svg>
